<?xml version="1.0" encoding="UTF-8" standalone="no"?>
<svg
   xmlns:dc="http://purl.org/dc/elements/1.1/"
   xmlns:cc="http://creativecommons.org/ns#"
   xmlns:rdf="http://www.w3.org/1999/02/22-rdf-syntax-ns#"
   xmlns:svg="http://www.w3.org/2000/svg"
   xmlns="http://www.w3.org/2000/svg"
   xmlns:sodipodi="http://sodipodi.sourceforge.net/DTD/sodipodi-0.dtd"
   xmlns:inkscape="http://www.inkscape.org/namespaces/inkscape"
   viewBox="0 0 280 280"
   version="1.1"
   id="svg4862"
   sodipodi:docname="ettus.svg"
   width="280"
   height="280"
   inkscape:version="0.92.1 r15371">
  <metadata
     id="metadata4866">
    <rdf:RDF>
      <cc:Work
         rdf:about="">
        <dc:format>image/svg+xml</dc:format>
        <dc:type
           rdf:resource="http://purl.org/dc/dcmitype/StillImage" />
        <dc:title>logo</dc:title>
      </cc:Work>
    </rdf:RDF>
  </metadata>
  <sodipodi:namedview
     pagecolor="#ffffff"
     bordercolor="#666666"
     borderopacity="1"
     objecttolerance="10"
     gridtolerance="10"
     guidetolerance="10"
     inkscape:pageopacity="0"
     inkscape:pageshadow="2"
     inkscape:window-width="1598"
     inkscape:window-height="881"
     id="namedview4864"
     showgrid="false"
     inkscape:zoom="2.8435794"
     inkscape:cx="90.203276"
     inkscape:cy="167.07112"
     inkscape:window-x="0"
     inkscape:window-y="0"
     inkscape:window-maximized="0"
     inkscape:current-layer="svg4862" />
  <defs
     id="defs4755">
    <style
       id="style4753">.cls-1{fill:#010101;}.cls-2{fill:#90a584;}.cls-3{fill:#003f2e;}.cls-4{fill:#231f20;}</style>
  </defs>
  <title
     id="title4757">logo</title>
  <g
     id="Layer_1"
     data-name="Layer 1"
     transform="translate(0,88.29)">
    <path
       class="cls-1"
       d="m 14,18.24 h 13 v 3.25 h -9.29 v 4.72 h 6.73 v 3.19 h -6.73 v 5.41 h 9.65 v 3.41 H 14 Z"
       id="path4759"
       inkscape:connector-curvature="0"
       style="fill:#010101" />
    <path
       class="cls-1"
       d="m 35.35,35.58 a 10,10 0 0 0 1.4,-0.11 v 2.8 a 14.09,14.09 0 0 1 -2.83,0.25 c -2.36,0 -3.38,-1.05 -3.38,-3.38 v -8.52 h -1.86 v -2.8 h 1.86 V 19.2 H 34 v 4.62 h 2.8 v 2.8 H 34 v 7.28 c 0,1.21 0.11,1.68 1.35,1.68 z"
       id="path4761"
       inkscape:connector-curvature="0"
       style="fill:#010101" />
    <path
       class="cls-1"
       d="m 45.16,35.58 a 10,10 0 0 0 1.4,-0.11 v 2.8 a 14.09,14.09 0 0 1 -2.83,0.25 c -2.36,0 -3.38,-1.05 -3.38,-3.38 v -8.52 h -1.86 v -2.8 h 1.86 V 19.2 h 3.41 v 4.62 h 2.8 v 2.8 h -2.8 v 7.28 c 0,1.21 0.17,1.68 1.4,1.68 z"
       id="path4763"
       inkscape:connector-curvature="0"
       style="fill:#010101" />
    <path
       class="cls-1"
       d="m 53.54,38.49 c -2.66,0 -4,-1.54 -4,-4.64 v -10 h 3.41 v 9.34 c 0,1.76 0.41,2.58 1.65,2.58 a 4.88,4.88 0 0 0 3.19,-1.62 V 23.82 h 3.37 v 14.4 H 58 v -1.68 a 6.89,6.89 0 0 1 -4.46,1.95 z"
       id="path4765"
       inkscape:connector-curvature="0"
       style="fill:#010101" />
    <path
       class="cls-1"
       d="m 65.58,33.79 c 1.07,1.38 2.12,2.06 3.3,2.06 1.18,0 2,-0.63 2,-1.59 0,-1.18 -1,-1.46 -2.65,-2.06 -3,-1.13 -4.5,-2.06 -4.5,-4.45 0,-2.39 1.95,-4.21 4.95,-4.21 a 6.13,6.13 0 0 1 4.86,2.2 l -2.14,1.87 a 3.89,3.89 0 0 0 -2.81,-1.45 c -1.18,0 -1.84,0.57 -1.84,1.42 0,0.85 1.19,1.21 3.22,2 2.63,1 4,2 4,4.5 0,2.67 -2,4.43 -5,4.43 A 6.56,6.56 0 0 1 63.33,35.6 Z"
       id="path4767"
       inkscape:connector-curvature="0"
       style="fill:#010101" />
    <path
       class="cls-1"
       d="m 147.13,65.33 h 6.76 c 5,0 7.5,1.9 7.5,6 a 4.84,4.84 0 0 1 -3.68,5.06 l 4.42,9 h -4 l -3.84,-8.1 h -3.44 v 8.1 h -3.68 z m 7,8.71 c 2.39,0 3.52,-0.85 3.52,-2.78 0,-1.93 -1.16,-2.77 -3.52,-2.77 h -3.27 V 74 Z"
       id="path4769"
       inkscape:connector-curvature="0"
       style="fill:#010101" />
    <path
       class="cls-1"
       d="m 169.62,85.58 c -3.82,0 -6.1,-2.72 -6.1,-7.45 0,-4.73 2.31,-7.49 6,-7.49 3.69,0 6,2.63 6,7.3 0,0.25 0,0.49 0,0.74 h -8.63 c 0,2.72 1,4.1 3,4.1 a 3.25,3.25 0 0 0 2.94,-1.84 l 2.5,1.54 a 6.06,6.06 0 0 1 -5.71,3.1 z m 2.55,-9.34 c 0,-1.93 -1,-3 -2.61,-3 -1.61,0 -2.49,1.1 -2.63,3 z"
       id="path4771"
       inkscape:connector-curvature="0"
       style="fill:#010101" />
    <path
       class="cls-1"
       d="m 180.39,80.88 c 1.07,1.38 2.12,2.06 3.3,2.06 1.18,0 2,-0.63 2,-1.59 0,-1.18 -1,-1.46 -2.64,-2.06 -3,-1.13 -4.51,-2.06 -4.51,-4.45 0,-2.39 1.95,-4.2 4.95,-4.2 a 6.12,6.12 0 0 1 4.86,2.19 l -2.14,1.87 a 3.9,3.9 0 0 0 -2.8,-1.46 c -1.19,0 -1.85,0.58 -1.85,1.43 0,0.85 1.19,1.21 3.22,2 2.64,1 4,2 4,4.51 0,2.66 -2,4.42 -5,4.42 a 6.56,6.56 0 0 1 -5.64,-2.92 z"
       id="path4773"
       inkscape:connector-curvature="0"
       style="fill:#010101" />
    <path
       class="cls-1"
       d="m 197.49,85.58 c -3.83,0 -6.1,-2.72 -6.1,-7.45 0,-4.73 2.3,-7.49 6,-7.49 3.7,0 6,2.63 6,7.3 0,0.25 0,0.49 0,0.74 h -8.63 c 0,2.72 1,4.1 3,4.1 a 3.26,3.26 0 0 0 2.94,-1.84 l 2.5,1.54 a 6.08,6.08 0 0 1 -5.71,3.1 z M 200,76.24 c 0,-1.93 -1,-3 -2.61,-3 -1.61,0 -2.5,1.1 -2.64,3 z"
       id="path4775"
       inkscape:connector-curvature="0"
       style="fill:#010101" />
    <path
       class="cls-1"
       d="m 213.89,84 a 7.14,7.14 0 0 1 -4.29,1.43 3.54,3.54 0 0 1 -3.84,-3.85 c 0,-3.21 2.66,-4.91 8.16,-5.6 v -1.09 c 0,-1 -0.72,-1.65 -2,-1.65 a 3.73,3.73 0 0 0 -3.16,1.65 l -2.31,-1.45 a 6.11,6.11 0 0 1 5.52,-2.8 c 3.38,0 5.28,1.62 5.28,4.25 v 8.47 a 12.92,12.92 0 0 0 0.21,1.94 h -3.24 z m -4.78,-2.69 a 1.41,1.41 0 0 0 1.54,1.54 4.58,4.58 0 0 0 3.16,-1.51 V 78.3 c -3.19,0.44 -4.7,1.35 -4.7,3.05 z"
       id="path4777"
       inkscape:connector-curvature="0"
       style="fill:#010101" />
    <path
       class="cls-1"
       d="m 221.2,70.91 h 3.25 v 2.39 c 0.93,-1.76 2.14,-2.64 3.56,-2.64 a 2.22,2.22 0 0 1 0.45,0 v 3.54 h -0.17 a 4.11,4.11 0 0 0 -3.63,2.26 v 8.84 h -3.46 z"
       id="path4779"
       inkscape:connector-curvature="0"
       style="fill:#010101" />
    <path
       class="cls-1"
       d="m 242.14,81.93 a 5.68,5.68 0 0 1 -5.66,3.65 c -4.07,0 -6.21,-2.55 -6.21,-7.47 0,-4.67 2.39,-7.45 6.21,-7.45 A 5.45,5.45 0 0 1 242,74.4 l -2.85,1.24 c -0.5,-1.46 -1.24,-2.17 -2.45,-2.17 -2.09,0 -3,1.53 -3,4.83 0,3 0.91,4.39 2.8,4.39 a 3.2,3.2 0 0 0 3,-2.16 z"
       id="path4781"
       inkscape:connector-curvature="0"
       style="fill:#010101" />
    <path
       class="cls-1"
       d="M 244.61,65.33 H 248 v 7.17 a 6.22,6.22 0 0 1 4.24,-1.86 c 2.66,0 4,1.56 4,4.67 v 10 h -3.39 V 76 c 0,-1.75 -0.43,-2.55 -1.67,-2.55 A 4.85,4.85 0 0 0 248,75 v 10.3 h -3.38 z"
       id="path4783"
       inkscape:connector-curvature="0"
       style="fill:#010101" />
    <path
       class="cls-2"
       d="M 280,51.33 267.73,45 v 4.19 h -27 v -31 h -1.1 v 31 H 212.4 V 12.56 h -1.1 v 36.63 h -27.23 v -31 H 183 v 31 H 155.73 V 32.81 h -1.1 V 49.19 H 132.9 a 6.47,6.47 0 0 1 0,4.94 h 134.83 v 4.24 z"
       id="path4785"
       inkscape:connector-curvature="0"
       style="fill:#90a584" />
    <path
       class="cls-2"
       d="m 120.3,51.66 a 6.55,6.55 0 0 1 0.48,-2.47 H 0 v 4.94 H 12.93 V 85.06 H 14 V 54.13 h 27.27 v 36.56 h 1.1 V 54.13 h 27.24 v 30.93 h 1.1 V 54.13 H 98 v 16.32 h 1.1 V 54.13 h 21.73 a 6.33,6.33 0 0 1 -0.53,-2.47 z"
       id="path4787"
       inkscape:connector-curvature="0"
       style="fill:#90a584" />
    <path
       class="cls-3"
       d="m 98.51,83.32 a 6.55,6.55 0 1 1 6.54,-6.54 6.55,6.55 0 0 1 -6.54,6.54 z m 0,-12 a 5.45,5.45 0 1 0 5.49,5.46 5.45,5.45 0 0 0 -5.49,-5.45 z"
       id="path4789"
       inkscape:connector-curvature="0"
       style="fill:#003f2e" />
    <path
       class="cls-3"
       d="m 70.16,97.63 a 6.55,6.55 0 1 1 6.55,-6.55 6.56,6.56 0 0 1 -6.55,6.55 z m 0,-12 a 5.45,5.45 0 1 0 5.45,5.44 5.45,5.45 0 0 0 -5.45,-5.43 z"
       id="path4791"
       inkscape:connector-curvature="0"
       style="fill:#003f2e" />
    <path
       class="cls-3"
       d="M 13.48,97.63 A 6.55,6.55 0 1 1 20,91.08 6.56,6.56 0 0 1 13.48,97.63 Z m 0,-12 a 5.45,5.45 0 1 0 5.45,5.44 5.45,5.45 0 0 0 -5.45,-5.43 z"
       id="path4793"
       inkscape:connector-curvature="0"
       style="fill:#003f2e" />
    <path
       class="cls-3"
       d="m 41.82,103.26 a 6.55,6.55 0 1 1 6.55,-6.55 6.56,6.56 0 0 1 -6.55,6.55 z m 0,-12 a 5.45,5.45 0 1 0 5.45,5.45 5.45,5.45 0 0 0 -5.45,-5.45 z"
       id="path4795"
       inkscape:connector-curvature="0"
       style="fill:#003f2e" />
    <path
       class="cls-3"
       d="m 155.18,33 a 6.55,6.55 0 1 1 6.54,-6.54 6.55,6.55 0 0 1 -6.54,6.54 z m 0,-12 a 5.45,5.45 0 1 0 5.44,5.45 5.46,5.46 0 0 0 -5.44,-5.45 z"
       id="path4797"
       inkscape:connector-curvature="0"
       style="fill:#003f2e" />
    <path
       class="cls-3"
       d="m 183.52,18.71 a 6.55,6.55 0 1 1 6.54,-6.54 6.55,6.55 0 0 1 -6.54,6.54 z m 0,-12 a 5.45,5.45 0 1 0 5.48,5.46 5.46,5.46 0 0 0 -5.48,-5.45 z"
       id="path4799"
       inkscape:connector-curvature="0"
       style="fill:#003f2e" />
    <path
       class="cls-3"
       d="m 240.19,18.71 a 6.55,6.55 0 1 1 6.55,-6.54 6.54,6.54 0 0 1 -6.55,6.54 z m 0,-12 a 5.45,5.45 0 1 0 5.45,5.45 5.45,5.45 0 0 0 -5.45,-5.44 z"
       id="path4801"
       inkscape:connector-curvature="0"
       style="fill:#003f2e" />
    <path
       class="cls-3"
       d="m 211.85,13.09 a 6.55,6.55 0 1 1 6.55,-6.55 6.55,6.55 0 0 1 -6.55,6.55 z m 0,-12 a 5.45,5.45 0 1 0 5.45,5.44 5.45,5.45 0 0 0 -5.45,-5.43 z"
       id="path4803"
       inkscape:connector-curvature="0"
       style="fill:#003f2e" />
    <path
       class="cls-3"
       d="m 126.84,58.21 a 6.55,6.55 0 1 1 6.55,-6.55 6.55,6.55 0 0 1 -6.55,6.55 z m 0,-12 a 5.45,5.45 0 1 0 5.45,5.45 5.45,5.45 0 0 0 -5.45,-5.45 z"
       id="path4805"
       inkscape:connector-curvature="0"
       style="fill:#003f2e" />
    <path
       class="cls-1"
       d="m 257.81,71.58 v -0.75 h 3.32 v 0.75 h -1.21 v 3.3 H 259 v -3.3 z"
       id="path4807"
       inkscape:connector-curvature="0"
       style="fill:#010101" />
    <path
       class="cls-1"
       d="m 262.85,70.83 0.95,2.79 v 0 l 0.89,-2.79 H 266 v 4 h -0.84 V 72 72 l -1,2.87 h -0.69 l -1,-2.84 v 0 2.84 h -0.83 v -4 z"
       id="path4809"
       inkscape:connector-curvature="0"
       style="fill:#010101" />
    <path
       class="cls-4"
       d="m 120.64,96 h 1.08 l 1.4,7.26 H 122 l -0.38,-1.89 h -3.37 l -1.18,1.89 h -1 z m -1.88,4.55 h 2.75 L 120.93,97 Z"
       id="path4811"
       inkscape:connector-curvature="0"
       style="fill:#231f20" />
    <path
       class="cls-4"
       d="m 128.5,96 h 1.4 l 2.3,6 1.27,-6 h 0.92 l -1.53,7.26 h -1.29 l -2.38,-6.17 -1.31,6.17 H 127 Z"
       id="path4813"
       inkscape:connector-curvature="0"
       style="fill:#231f20" />
    <path
       class="cls-4"
       d="m 137.79,103.26 a 2.45,2.45 0 0 1 0.07,-0.76 2.06,2.06 0 0 1 -1.75,0.92 c -1.16,0 -1.65,-0.66 -1.47,-1.49 a 2.18,2.18 0 0 1 1.2,-1.48 4.4,4.4 0 0 1 1.82,-0.33 c 0.24,0 0.39,0 0.68,0 0.13,-0.62 0.19,-0.9 0,-1.12 -0.19,-0.22 -0.53,-0.33 -0.8,-0.33 a 1.09,1.09 0 0 0 -1.2,0.86 h -0.94 a 2,2 0 0 1 0.55,-1 2.73,2.73 0 0 1 1.75,-0.54 c 0.73,0 1.47,0.23 1.63,0.74 a 1.38,1.38 0 0 1 0,0.78 l -0.56,2.41 a 11.34,11.34 0 0 0 -0.19,1.27 z m -0.12,-2.49 c -0.39,0 -1.82,0 -2,1 -0.07,0.32 0,0.87 0.85,0.87 a 1.56,1.56 0 0 0 1.2,-0.54 2.84,2.84 0 0 0 0.52,-1.33 4,4 0 0 0 -0.57,0 z"
       id="path4815"
       inkscape:connector-curvature="0"
       style="fill:#231f20" />
    <path
       class="cls-4"
       d="m 140.6,98.19 h 0.89 l 0.23,-1.06 1,-0.3 -0.29,1.36 h 1.13 l -0.15,0.69 h -1.13 l -0.64,3 c 0,0.25 -0.15,0.67 0.53,0.67 a 2.18,2.18 0 0 0 0.46,0 l -0.15,0.74 a 4.88,4.88 0 0 1 -0.79,0.06 c -0.87,0 -1.23,-0.25 -1.06,-1.08 l 0.71,-3.37 h -0.89 z"
       id="path4817"
       inkscape:connector-curvature="0"
       style="fill:#231f20" />
    <path
       class="cls-4"
       d="m 144.73,98.21 h 1 l -1.08,5.05 h -0.95 z m 0.36,-2.19 h 1.14 l -0.22,1 h -1.14 z"
       id="path4819"
       inkscape:connector-curvature="0"
       style="fill:#231f20" />
    <path
       class="cls-4"
       d="m 149.73,98.08 c 2,0 2.14,1.59 1.92,2.64 a 3.2,3.2 0 0 1 -3.14,2.71 c -1.67,0 -2.23,-1.16 -1.92,-2.64 a 3.15,3.15 0 0 1 3.14,-2.71 z m -1,4.64 c 0.71,0 1.64,-0.51 2,-2 0.27,-1.26 -0.17,-1.92 -1,-1.92 -0.61,0 -1.66,0.38 -2,2 -0.37,0.97 -0.13,1.92 0.95,1.92 z"
       id="path4821"
       inkscape:connector-curvature="0"
       style="fill:#231f20" />
    <path
       class="cls-4"
       d="m 153.55,98.79 0.12,-0.58 h 1 l -0.17,0.81 a 2.14,2.14 0 0 1 1.82,-0.91 1.33,1.33 0 0 1 1.46,1.72 l -0.73,3.43 h -1 l 0.68,-3.21 a 1,1 0 0 0 -0.09,-0.87 1.05,1.05 0 0 0 -0.82,-0.34 1.73,1.73 0 0 0 -1.64,1.51 l -0.62,2.91 h -0.94 z"
       id="path4823"
       inkscape:connector-curvature="0"
       style="fill:#231f20" />
    <path
       class="cls-4"
       d="m 161.8,103.26 a 2.45,2.45 0 0 1 0.07,-0.76 2.06,2.06 0 0 1 -1.75,0.92 c -1.16,0 -1.65,-0.66 -1.47,-1.49 a 2.19,2.19 0 0 1 1.19,-1.48 4.45,4.45 0 0 1 1.82,-0.33 c 0.25,0 0.4,0 0.69,0 0.13,-0.62 0.19,-0.9 0.05,-1.12 -0.14,-0.22 -0.53,-0.33 -0.81,-0.33 a 1.09,1.09 0 0 0 -1.19,0.86 h -1 a 2,2 0 0 1 0.56,-1 2.73,2.73 0 0 1 1.75,-0.54 c 0.73,0 1.46,0.23 1.62,0.74 a 1.38,1.38 0 0 1 0,0.78 l -0.55,2.41 a 11.34,11.34 0 0 0 -0.19,1.27 z m -0.13,-2.49 c -0.38,0 -1.82,0 -2,1 -0.07,0.32 0,0.87 0.86,0.87 a 1.54,1.54 0 0 0 1.19,-0.54 2.73,2.73 0 0 0 0.53,-1.33 4.06,4.06 0 0 0 -0.58,0 z"
       id="path4825"
       inkscape:connector-curvature="0"
       style="fill:#231f20" />
    <path
       class="cls-4"
       d="m 165.86,96 h 0.95 l -1.54,7.25 h -0.94 z"
       id="path4827"
       inkscape:connector-curvature="0"
       style="fill:#231f20" />
    <path
       class="cls-4"
       d="m 171.43,96 h 1 l -1.54,7.26 h -1 z"
       id="path4829"
       inkscape:connector-curvature="0"
       style="fill:#231f20" />
    <path
       class="cls-4"
       d="m 173.66,98.79 0.12,-0.58 h 0.95 l -0.17,0.81 a 2.14,2.14 0 0 1 1.82,-0.91 1.32,1.32 0 0 1 1.45,1.72 l -0.72,3.43 h -1 l 0.68,-3.21 a 1,1 0 0 0 -0.09,-0.87 1.06,1.06 0 0 0 -0.83,-0.34 1.73,1.73 0 0 0 -1.63,1.51 l -0.62,2.91 h -0.94 z"
       id="path4831"
       inkscape:connector-curvature="0"
       style="fill:#231f20" />
    <path
       class="cls-4"
       d="m 179.69,101.76 c -0.09,0.38 0,0.91 0.91,0.91 a 1.24,1.24 0 0 0 1,-0.32 0.92,0.92 0 0 0 0.26,-0.47 c 0.11,-0.49 -0.23,-0.59 -0.94,-0.76 -1,-0.24 -1.84,-0.45 -1.62,-1.5 a 2.16,2.16 0 0 1 2.29,-1.53 c 0.63,0 1.48,0.18 1.66,0.78 a 1.51,1.51 0 0 1 0,0.74 h -1 c 0.19,-0.77 -0.46,-0.83 -0.8,-0.83 -0.14,0 -1,0 -1.19,0.73 -0.09,0.46 0.34,0.57 0.59,0.64 1.32,0.33 1.61,0.41 1.85,0.69 a 1.09,1.09 0 0 1 0.18,0.94 2,2 0 0 1 -1,1.27 3.11,3.11 0 0 1 -1.57,0.35 c -1,0 -1.89,-0.43 -1.61,-1.64 z"
       id="path4833"
       inkscape:connector-curvature="0"
       style="fill:#231f20" />
    <path
       class="cls-4"
       d="m 184.15,98.19 h 0.9 l 0.22,-1.06 1,-0.3 -0.27,1.36 h 1.13 l -0.15,0.69 h -1.13 l -0.64,3 c -0.05,0.25 -0.14,0.67 0.53,0.67 a 2.18,2.18 0 0 0 0.46,0 l -0.15,0.74 a 4.88,4.88 0 0 1 -0.79,0.06 c -0.87,0 -1.23,-0.25 -1.06,-1.08 l 0.72,-3.37 H 184 Z"
       id="path4835"
       inkscape:connector-curvature="0"
       style="fill:#231f20" />
    <path
       class="cls-4"
       d="m 188.1,99.23 c 0.07,-0.34 0.13,-0.69 0.17,-1 h 1 l -0.19,1 a 1.79,1.79 0 0 1 1.42,-1 3.1,3.1 0 0 1 0.66,0 l -0.2,0.92 h -0.17 -0.27 c -1.12,0 -1.52,0.67 -1.7,1.53 l -0.58,2.69 h -0.95 z"
       id="path4837"
       inkscape:connector-curvature="0"
       style="fill:#231f20" />
    <path
       class="cls-4"
       d="m 193.05,98.21 -0.7,3.25 c -0.1,0.49 -0.13,1.11 0.84,1.11 a 1.72,1.72 0 0 0 1.31,-0.56 1.85,1.85 0 0 0 0.41,-1 l 0.61,-2.85 h 1 l -0.88,4.1 c 0,0.1 -0.12,0.66 -0.17,1 h -1 l 0.16,-0.87 a 2,2 0 0 1 -1.8,0.92 c -1.25,0 -1.68,-0.72 -1.47,-1.71 l 0.72,-3.39 z"
       id="path4839"
       inkscape:connector-curvature="0"
       style="fill:#231f20" />
    <path
       class="cls-4"
       d="m 198.16,98.88 0.13,-0.67 h 1 l -0.16,0.73 a 2.14,2.14 0 0 1 1.78,-0.86 c 1.11,0 1.34,0.57 1.44,0.94 a 2.36,2.36 0 0 1 1.9,-0.94 c 0.73,0 1.79,0.3 1.48,1.79 l -0.72,3.39 h -1 l 0.69,-3.24 a 1.16,1.16 0 0 0 0,-0.77 0.92,0.92 0 0 0 -0.88,-0.44 1.63,1.63 0 0 0 -1.18,0.53 2.33,2.33 0 0 0 -0.46,1.09 l -0.6,2.83 h -1 l 0.71,-3.34 c 0.13,-0.63 -0.13,-1.11 -0.88,-1.11 a 1.73,1.73 0 0 0 -1.22,0.55 2.1,2.1 0 0 0 -0.43,1 l -0.62,2.87 h -0.95 z"
       id="path4841"
       inkscape:connector-curvature="0"
       style="fill:#231f20" />
    <path
       class="cls-4"
       d="m 207.81,100.9 c -0.24,1 0,1.82 1.05,1.82 a 1.41,1.41 0 0 0 1.41,-1 h 0.95 a 2.12,2.12 0 0 1 -0.66,1 2.67,2.67 0 0 1 -1.88,0.68 c -1.58,0 -2.13,-1 -1.8,-2.59 a 3.37,3.37 0 0 1 1.51,-2.37 2.79,2.79 0 0 1 1.45,-0.37 c 2.26,0 1.79,2 1.6,2.82 z m 2.8,-0.66 c 0.12,-0.48 0.24,-1.49 -0.93,-1.49 a 1.74,1.74 0 0 0 -1.69,1.49 z"
       id="path4843"
       inkscape:connector-curvature="0"
       style="fill:#231f20" />
    <path
       class="cls-4"
       d="m 213.3,98.79 0.12,-0.58 h 0.94 l -0.17,0.81 a 2.14,2.14 0 0 1 1.82,-0.91 1.33,1.33 0 0 1 1.46,1.72 l -0.72,3.43 h -1 l 0.68,-3.21 a 1,1 0 0 0 -0.09,-0.87 1.05,1.05 0 0 0 -0.82,-0.34 1.73,1.73 0 0 0 -1.64,1.51 l -0.61,2.91 h -1 z"
       id="path4845"
       inkscape:connector-curvature="0"
       style="fill:#231f20" />
    <path
       class="cls-4"
       d="m 218.76,98.19 h 0.9 l 0.22,-1.06 1,-0.3 -0.29,1.36 h 1.13 l -0.15,0.69 h -1.13 l -0.64,3 c -0.05,0.25 -0.14,0.67 0.53,0.67 a 2.18,2.18 0 0 0 0.46,0 l -0.15,0.74 a 4.88,4.88 0 0 1 -0.79,0.06 c -0.87,0 -1.23,-0.25 -1.06,-1.08 l 0.72,-3.37 h -0.9 z"
       id="path4847"
       inkscape:connector-curvature="0"
       style="fill:#231f20" />
    <path
       class="cls-4"
       d="m 222.67,101.76 c -0.09,0.38 0,0.91 0.91,0.91 a 1.24,1.24 0 0 0 0.95,-0.32 0.92,0.92 0 0 0 0.26,-0.47 c 0.11,-0.49 -0.23,-0.59 -0.94,-0.76 -1,-0.24 -1.84,-0.45 -1.62,-1.5 a 2.16,2.16 0 0 1 2.29,-1.53 c 0.64,0 1.48,0.18 1.66,0.78 a 1.51,1.51 0 0 1 0,0.74 h -1 c 0.19,-0.77 -0.46,-0.83 -0.8,-0.83 -0.14,0 -1,0 -1.19,0.73 -0.09,0.46 0.34,0.57 0.59,0.64 1.33,0.33 1.61,0.41 1.85,0.69 a 1.09,1.09 0 0 1 0.18,0.94 2,2 0 0 1 -1,1.27 3.1,3.1 0 0 1 -1.56,0.35 c -1,0 -1.9,-0.43 -1.62,-1.64 z"
       id="path4849"
       inkscape:connector-curvature="0"
       style="fill:#231f20" />
    <path
       class="cls-4"
       d="m 231.24,96 h 2.59 c 0.88,0 1.37,0.09 1.72,0.53 a 1.47,1.47 0 0 1 0.24,1.3 2.18,2.18 0 0 1 -1.58,1.64 1.37,1.37 0 0 1 1.07,1.81 2.57,2.57 0 0 1 -1.23,1.64 3.1,3.1 0 0 1 -1.71,0.34 h -2.64 z m -0.4,6.44 h 1.72 a 1.63,1.63 0 0 0 1.7,-1.26 c 0.15,-0.72 -0.24,-1.25 -1.12,-1.25 h -1.76 z m 0.73,-3.38 H 233 a 1.58,1.58 0 0 0 1.75,-1.14 c 0.23,-1.1 -0.68,-1.1 -1.23,-1.1 H 232 Z"
       id="path4851"
       inkscape:connector-curvature="0"
       style="fill:#231f20" />
    <path
       class="cls-4"
       d="m 237.23,99.23 c 0.07,-0.34 0.13,-0.69 0.17,-1 h 1 l -0.19,1 a 1.79,1.79 0 0 1 1.42,-1 3.1,3.1 0 0 1 0.66,0 l -0.2,0.92 h -0.17 -0.27 c -1.12,0 -1.52,0.67 -1.7,1.53 l -0.58,2.69 h -1 z"
       id="path4853"
       inkscape:connector-curvature="0"
       style="fill:#231f20" />
    <path
       class="cls-4"
       d="m 243.31,103.26 a 2.45,2.45 0 0 1 0.07,-0.76 2,2 0 0 1 -1.75,0.92 c -1.15,0 -1.64,-0.66 -1.46,-1.49 a 2.19,2.19 0 0 1 1.19,-1.48 4.45,4.45 0 0 1 1.82,-0.33 c 0.24,0 0.4,0 0.69,0 0.13,-0.62 0.19,-0.9 0,-1.12 -0.19,-0.22 -0.54,-0.33 -0.81,-0.33 a 1.09,1.09 0 0 0 -1.19,0.86 H 241 a 2,2 0 0 1 0.55,-1 2.76,2.76 0 0 1 1.75,-0.54 c 0.74,0 1.47,0.23 1.63,0.74 a 1.38,1.38 0 0 1 0,0.78 l -0.55,2.41 a 11.34,11.34 0 0 0 -0.19,1.27 z m -0.12,-2.49 c -0.38,0 -1.82,0 -2,1 -0.07,0.32 0,0.87 0.86,0.87 a 1.54,1.54 0 0 0 1.19,-0.54 2.73,2.73 0 0 0 0.53,-1.33 4.16,4.16 0 0 0 -0.58,0 z"
       id="path4855"
       inkscape:connector-curvature="0"
       style="fill:#231f20" />
    <path
       class="cls-4"
       d="m 246.8,98.79 0.12,-0.58 h 1 l -0.18,0.81 a 2.18,2.18 0 0 1 1.83,-0.91 1.33,1.33 0 0 1 1.43,1.72 l -0.72,3.43 h -1 l 0.69,-3.21 a 1,1 0 0 0 -0.09,-0.87 1.07,1.07 0 0 0 -0.83,-0.34 1.75,1.75 0 0 0 -1.64,1.51 l -0.61,2.91 h -0.94 z"
       id="path4857"
       inkscape:connector-curvature="0"
       style="fill:#231f20" />
    <path
       class="cls-4"
       d="m 257,96 h 1 l -1.37,6.44 c 0,0.11 -0.09,0.54 -0.13,0.81 h -0.95 l 0.16,-0.81 a 2.13,2.13 0 0 1 -0.57,0.53 2.61,2.61 0 0 1 -1.33,0.38 c -0.67,0 -2.1,-0.36 -1.62,-2.57 0.41,-1.92 1.68,-2.75 2.86,-2.75 1.18,0 1.32,0.64 1.39,0.85 z m -1,3.24 a 1.11,1.11 0 0 0 -1,-0.51 c -1.39,0 -1.74,1.68 -1.81,2 -0.19,0.9 -0.18,1.93 1,1.93 1.49,0 1.84,-1.64 1.92,-2 A 2,2 0 0 0 256,99.25 Z"
       id="path4859"
       inkscape:connector-curvature="0"
       style="fill:#231f20" />
  </g>
</svg>
