<?xml version="1.0" encoding="UTF-8" standalone="no"?>
<svg xmlns:svg="http://www.w3.org/2000/svg" xmlns="http://www.w3.org/2000/svg" viewBox="0 0 28 22"><path d="M27.83545 17.80446l-.11751.80414c-.05154.33286-.29985.62481-.6011.77545-.30126.15064-.73057.15822-.95405-.01248-.22348-.1707-.62888-.97719-.74014-1.10242-.11125-.12524-.25424-.13776-.34677-.0952-.52828.24246-1.08692 1.11098-1.40482 1.25285-.43265.19736-.9422.10751-1.28126-.22592-.25045-.24228-.66838-1.30642-.72665-1.39642-.05827-.09-.19136-.19186-.3656-.13166-.17426.0602-.9253.55313-1.23036.6238-.30506.07066-.66997-.07067-.9015-.31588a1.04012 1.04012 0 0 1-.26362-.91814c.05478-.47761.08905-.75012.10282-.81752.4204-2.10413-.02207-4.28894-1.22804-6.0637-1.20596-1.77474-3.07432-2.99065-5.1854-3.3746-3.57273-.62942-6.97944 1.75599-7.60992 5.32853-.51807 2.96413 1.4597 5.78869 4.42227 6.31566 2.47943.43207 4.95363-1.90405 5.03293-3.89246 0-.26388 0-.44168-.14812-1.02126-.24378-.73532-.70996-1.1592-.87973-.90392-.13987.1756.2208.25529.2208 1.12863-.03752.62484-.18562.97302-.2208 1.05461-.51753 1.2165-2.3391 2.13127-3.73129 1.88594-1.87382-.3356-3.04391-2.34289-2.7184-4.21849.43914-2.48379 2.80754-4.14216 5.29173-3.7053 1.7351.31329 3.24457 1.37388 4.12746 2.90006.88288 1.52617 1.0498 3.36343.45643 5.02373l-.04096.02868c-1.21258 3.5998-4.86639 5.78005-8.61023 5.13778-2.58809-.45108-4.88996-1.91434-6.3968-4.06633-1.50684-2.152-2.09457-4.81551-1.63327-7.4018C1.36743 3.55942 7.89048-1.00806 14.73445.19116 23.04423 1.66084 28.78449 9.3197 27.85 17.70653l-.01455.09793z" fill-rule="evenodd"></path></svg>
