<?xml version="1.0" encoding="UTF-8" standalone="no"?>
<!-- Generator: Adobe Illustrator 16.0.0, SVG Export Plug-In . SVG Version: 6.00 Build 0)  -->

<svg
   xmlns:dc="http://purl.org/dc/elements/1.1/"
   xmlns:cc="http://creativecommons.org/ns#"
   xmlns:rdf="http://www.w3.org/1999/02/22-rdf-syntax-ns#"
   xmlns:svg="http://www.w3.org/2000/svg"
   xmlns="http://www.w3.org/2000/svg"
   xmlns:sodipodi="http://sodipodi.sourceforge.net/DTD/sodipodi-0.dtd"
   xmlns:inkscape="http://www.inkscape.org/namespaces/inkscape"
   version="1.1"
   id="Layer_1"
   x="0px"
   y="0px"
   width="356"
   height="356"
   viewBox="-4.725 200.945 356 356"
   enable-background="new -4.725 200.945 1200 440"
   xml:space="preserve"
   sodipodi:docname="greensock.svg"
   inkscape:version="0.92.1 r15371"><metadata
     id="metadata6367"><rdf:RDF><cc:Work
         rdf:about=""><dc:format>image/svg+xml</dc:format><dc:type
           rdf:resource="http://purl.org/dc/dcmitype/StillImage" /><dc:title></dc:title></cc:Work></rdf:RDF></metadata><defs
     id="defs6365" /><sodipodi:namedview
     pagecolor="#ffffff"
     bordercolor="#666666"
     borderopacity="1"
     objecttolerance="10"
     gridtolerance="10"
     guidetolerance="10"
     inkscape:pageopacity="0"
     inkscape:pageshadow="2"
     inkscape:window-width="1598"
     inkscape:window-height="881"
     id="namedview6363"
     showgrid="false"
     fit-margin-top="0"
     fit-margin-left="0"
     fit-margin-right="0"
     fit-margin-bottom="0"
     inkscape:zoom="0.57166667"
     inkscape:cx="229.07642"
     inkscape:cy="187.32489"
     inkscape:window-x="0"
     inkscape:window-y="0"
     inkscape:window-maximized="0"
     inkscape:current-layer="Layer_1" /><g
     id="g6360"
     transform="translate(14.260925,-38.936672)"><g
       id="g6358"><path
         d="M 53.682,395.514 C 43.293,400.401 15.796,422.4 10.5,428.918 5,435.436 3.371,425.252 9.074,408.346 c 4.48,-13.647 15.888,-32.183 35.034,-48.07 11.202,-9.166 35.849,-22.405 50.921,-30.146 3.056,-1.63 42.571,-18.332 77.809,-26.683 3.056,-0.815 -3.666,5.092 -4.685,8.351 -5.296,15.48 -111.01,81.882 -111.01,81.882 z"
         id="path6230"
         inkscape:connector-curvature="0" /><path
         d="m 202.576,582.294 c 1.833,10.999 0.204,11.814 -11.202,13.24 -11.407,1.426 -19.758,-2.852 -22.813,-5.703 -3.056,-2.853 -3.666,-9.166 -0.611,-14.869 1.834,-3.667 3.667,-4.889 4.686,-9.37 1.018,-4.277 1.833,-5.296 2.647,-6.925 0.814,-1.427 1.019,-2.853 1.222,-12.833 0.204,-9.98 0,-28.72 1.019,-36.663 1.019,-8.147 36.257,3.666 36.257,3.666 0,0 -8.352,20.776 -10.592,25.868 -2.241,5.093 -2.037,14.869 -2.037,16.906 0,2.037 -0.814,6.11 -1.426,6.314 -0.611,0.203 2.037,5.499 0.814,8.555 -0.815,2.852 1.833,10.185 2.036,11.814 z"
         id="path6232"
         inkscape:connector-curvature="0" /><path
         d="m 216.02,270.857 c -1.223,-7.74 0,-23.018 1.629,-25.461 5.093,-6.926 31.979,-7.74 37.683,0.407 2.444,3.666 2.24,12.221 1.833,17.721 -0.407,5.499 -1.833,17.313 -2.037,21.184 -0.203,2.852 -29.738,7.332 -36.256,-0.408 -1.834,-2.036 -2.852,-13.443 -2.852,-13.443 z"
         id="path6234"
         inkscape:connector-curvature="0" /><path
         d="m 275.904,562.536 c 12.425,8.963 21.998,10.592 28.312,13.851 6.314,3.26 4.685,9.574 -5.907,11.407 -8.555,1.629 -21.998,-1.63 -30.96,-1.63 -8.962,0 -28.924,1.019 -34.22,-2.647 -6.11,-4.277 -3.463,-12.222 -3.463,-12.222 1.63,-4.48 5.703,-14.462 4.481,-22.609 -1.222,-8.147 -2.852,-12.628 -5.907,-20.165 -3.055,-7.536 -5.295,-26.071 -2.443,-27.09 2.852,-1.019 2.036,0 5.703,0.814 3.666,0.814 7.74,2.037 15.684,2.037 7.944,0 16.702,-1.223 19.758,-1.833 3.055,-0.611 5.499,-1.223 4.48,5.092 -1.018,6.314 -4.073,18.128 -4.277,27.294 -0.203,9.166 -0.203,19.758 0.408,21.591 0.61,1.833 5.092,3.87 8.351,6.11 z"
         id="path6236"
         inkscape:connector-curvature="0" /><g
         id="g6336"><g
           id="g6242"><path
             d="m 232.315,291.226 c -22.405,19.351 -65.791,24.646 -130.155,49.496 -16.499,6.314 -60.495,25.257 -71.087,45.015 35.645,-20.572 48.885,7.74 51.736,36.867 2.647,27.294 16.295,41.553 51.329,40.737 36.053,-0.814 47.052,20.165 57.032,44.812 19.35,-94.308 50.311,-112.639 70.271,-128.73 42.368,-34.424 -9.776,-95.123 -29.126,-88.197 z"
             id="path6238"
             inkscape:connector-curvature="0"
             style="fill:#88ce02" /><path
             d="M 232.315,291.226 C 178.542,309.965 125.379,314.65 62.848,353.147 47.979,362.313 16.611,383.088 10.5,422.808 33.312,397.55 86.067,365.776 150.636,345.611 c 32.59,-10.185 56.422,-16.906 85.345,-28.109 -2.036,-13.037 -2.036,-18.129 -3.666,-26.276 z"
             id="path6240"
             inkscape:connector-curvature="0"
             style="fill:#88ce02" /></g><path
           d="m 300.957,402.846 c 0,0 -3.87,13.24 -11.61,17.518 0,0 -5.703,2.037 -17.109,-4.277 -3.259,-1.833 -5.703,-8.147 -5.5,-10.185 0.204,-4.889 3.259,-7.129 3.259,-7.129 0,0 3.26,-5.5 7.129,-5.296 3.871,0.203 10.389,0.814 12.426,-1.019 1.832,-2.037 11.813,3.666 11.405,10.388 z"
           id="path6244"
           inkscape:connector-curvature="0" /><path
           d="m 217.853,274.727 c 0,0 -0.814,10.389 -2.24,16.906 -0.204,1.223 -6.314,1.833 -10.796,3.667 8.555,24.442 60.088,24.238 66.81,12.221 -3.259,-2.24 -9.777,-5.703 -12.832,-6.925 -3.056,-1.223 -2.852,-1.019 -3.056,-6.722 -0.203,-5.704 -0.611,-16.295 -1.019,-19.147 -0.407,-2.852 -31.979,-2.852 -36.867,0 z"
           id="path6246"
           inkscape:connector-curvature="0" /><path
           d="m 219.89,274.727 c 0,0 0,5.907 -0.611,11.61 -0.203,2.648 -0.407,4.277 -0.814,6.314 -0.204,1.223 6.925,6.11 8.962,16.906 9.777,21.794 32.387,10.999 41.756,0.611 -3.259,-2.241 -8.555,-5.296 -14.665,-7.74 -3.056,-1.223 -1.63,-3.87 -1.833,-9.573 -0.204,-5.703 -1.019,-14.055 -1.426,-17.11 -0.409,-3.055 -26.48,-3.87 -31.369,-1.018 z"
           id="path6248"
           inkscape:connector-curvature="0"
           style="fill:#efefef" /><path
           d="m 217.853,274.727 c 0,0 -0.204,3.667 -0.814,7.944 2.647,2.647 6.11,6.314 8.759,8.555 1.833,1.63 6.313,1.426 10.388,1.426 3.666,0 6.925,0.407 8.351,-0.407 3.26,-1.63 7.944,-5.703 10.592,-8.759 -0.203,-3.666 -0.407,-7.129 -0.61,-8.759 -0.206,-2.852 -31.778,-2.852 -36.666,0 z"
           id="path6250"
           inkscape:connector-curvature="0" /><path
           d="m 236.389,290.207 c -2.445,0 -5.297,-0.203 -7.537,-0.611 -1.019,-0.203 -2.037,-0.814 -2.852,-1.222 -1.426,-1.019 -2.852,-2.24 -4.48,-3.463 -3.26,-2.444 -3.463,-3.87 -3.463,-4.48 1.426,-12.833 -0.408,-23.628 -0.408,-23.628 0,0 -1.426,-5.5 6.314,-6.926 7.74,-1.426 12.425,-1.629 12.425,-1.629 0,0 4.889,0 12.425,1.629 7.74,1.426 6.314,6.926 6.314,6.926 0,0 -1.833,10.795 -0.407,23.628 0,0.61 -0.203,2.036 -3.463,4.48 -2.852,2.037 -5.092,4.277 -7.332,4.685 -2.241,0.408 -5.093,0.611 -7.536,0.611 z"
           id="path6252"
           inkscape:connector-curvature="0" /><path
           d="m 236.389,242.952 c -13.443,0 -16.092,3.666 -19.962,7.74 -0.814,1.018 -0.204,7.129 1.223,20.165 h 1.833 c 0,0 -1.223,-3.667 -1.019,-7.944 0.204,-4.277 1.019,-4.073 0.407,-5.092 -0.814,-1.223 -2.444,-3.26 1.223,-5.296 3.666,-2.037 9.369,1.629 16.295,1.833 6.925,-0.204 12.832,-3.87 16.498,-1.833 3.666,2.036 2.037,4.073 1.223,5.296 -0.815,1.222 0.203,0.814 0.407,5.092 0.203,4.277 -1.019,7.944 -1.019,7.944 h 1.833 c 1.222,-13.036 2.037,-18.739 1.426,-19.758 -3.463,-4.481 -6.925,-7.944 -20.368,-8.147 z"
           id="path6254"
           inkscape:connector-curvature="0" /><path
           d="m 300.957,403.457 c 0,0 -3.87,12.425 -11.406,16.702 -1.63,-0.814 -1.426,-2.036 -2.852,-3.87 -0.408,-0.61 -1.834,-1.019 -2.444,-1.629 -0.611,-0.611 -0.407,-1.63 -1.426,-2.444 -0.815,-0.815 -1.426,-0.204 -2.241,-0.815 -0.814,-0.814 -1.019,-1.833 -1.629,-2.443 -0.408,-0.408 -2.037,-0.611 -2.444,-1.019 -1.019,-1.019 -9.98,-2.852 -9.573,-4.889 0.814,-3.056 2.444,-5.296 2.444,-5.296 0,0 3.87,-5.703 7.739,-5.5 3.87,0.204 7.537,1.019 9.574,-0.814 2.241,-2.038 14.87,5.499 14.258,12.017 z"
           id="path6256"
           inkscape:connector-curvature="0" /><path
           d="m 274.478,313.428 c 0,0 12.832,-3.056 21.591,5.296 8.759,8.555 8.147,19.146 5.5,25.664 2.24,2.648 6.314,9.98 3.259,18.739 13.443,11.406 7.536,28.924 -4.481,40.534 0,0 -2.852,-10.592 -14.258,-11.203 0.407,-4.073 -10.592,-7.333 -5.5,-17.925 -7.74,-1.833 -7.536,-7.129 -8.758,-13.646 -1.019,-6.519 2.647,-47.459 2.647,-47.459 z"
           id="path6258"
           inkscape:connector-curvature="0" /><path
           d="m 269.793,319.131 c 0,0 14.869,-7.536 23.628,1.019 8.758,8.555 6.313,17.924 3.666,24.442 2.24,2.647 7.536,10.185 4.277,19.146 -0.611,2.037 -5.092,2.037 -8.352,7.333 8.147,-4.686 13.24,-3.463 15.073,2.443 2.852,9.166 -3.463,20.165 -8.962,26.276 0,-0.204 -0.204,-0.408 -0.204,-0.611 -0.814,3.056 -1.833,8.962 -7.943,15.48 -3.056,3.259 -5.5,2.852 -8.963,2.037 -4.073,-1.019 -5.499,-2.853 -11.202,-5.907 -3.259,-1.833 -1.426,-4.074 -1.426,-5.907 0,-0.407 0.407,-1.019 1.019,-1.833 0.407,-1.019 1.629,-2.647 3.462,-4.481 0,0 2.648,-3.666 6.519,-3.463 3.87,0.204 7.943,-0.61 8.962,-1.629 v 0 c 0,-7.129 -8.147,-7.333 -5.296,-19.554 0.204,-0.611 1.223,-1.63 4.481,-2.037 -4.889,-1.019 -7.129,-1.223 -10.592,-4.481 -2.444,-2.24 -4.277,-5.092 -4.889,-8.758 -1.221,-6.314 -3.258,-39.515 -3.258,-39.515 z"
           id="path6260"
           inkscape:connector-curvature="0"
           style="fill:#efefef" /><path
           d="m 226.815,306.299 c -1.222,-1.63 -7.536,-9.777 -19.554,-13.036 -3.463,-1.019 -5.703,1.833 -9.165,3.87 -1.019,-0.611 -5.5,-2.648 -7.944,-1.223 -2.444,1.425 -4.073,2.852 -6.518,3.87 -1.223,-0.611 -4.481,-0.611 -7.129,0.407 -2.648,0.815 -6.722,2.648 -10.592,7.944 -2.444,8.759 43.181,2.24 43.181,2.24 z"
           id="path6262"
           inkscape:connector-curvature="0" /><path
           d="m 227.223,306.299 c -6.519,-2.241 -5.5,-9.777 -19.962,-10.999 -2.852,-0.204 -4.685,2.036 -6.722,3.462 1.019,1.019 2.037,2.648 2.648,4.277 -1.833,-2.036 -5.092,-4.685 -8.352,-5.296 -3.055,-0.61 -5.092,1.63 -8.351,3.26 0.61,0.61 1.222,1.629 2.036,2.852 -2.852,-1.833 -4.888,-2.444 -8.758,-1.019 -2.648,0.814 -7.74,3.055 -11.61,8.555 -2.444,8.759 41.145,-1.019 41.145,-1.019 z"
           id="path6264"
           inkscape:connector-curvature="0"
           style="fill:#88ce02" /><path
           d="m 265.516,309.558 c 0,0 0,-2.241 -0.204,-4.277 0,-0.407 -1.629,-1.426 -1.629,-1.833 l -0.407,-0.408 c 0,0 3.259,-1.833 5.703,-0.814 2.647,0.814 4.073,4.277 4.073,4.277 4.685,-1.629 5.092,0.204 7.333,2.648 4.889,-1.019 5.499,0.814 8.555,5.296 0,0 -3.666,-0.611 -10.795,0.61 -6.926,1.018 -12.629,-5.703 -12.629,-5.499 z"
           id="path6266"
           inkscape:connector-curvature="0" /><path
           d="m 264.701,308.539 c 0,0 1.222,-1.019 0.814,-1.223 2.24,-1.222 5.296,-2.647 6.722,1.223 4.685,-1.63 5.296,0.611 7.536,3.056 5.703,-2.648 6.11,0.61 6.518,2.036 -1.833,0 -4.48,0.204 -8.147,0.611 -6.925,1.019 -13.647,-5.907 -13.443,-5.703 z"
           id="path6268"
           inkscape:connector-curvature="0"
           style="fill:#88ce02" /><path
           d="m 195.448,303.447 c 0,0 11.61,4.073 21.387,3.462 9.777,-0.814 26.479,-1.629 35.441,3.667 0,0 9.166,-3.26 17.721,-1.019 8.556,2.24 24.239,16.906 19.555,32.386 -0.408,1.019 -3.056,2.648 -6.111,3.667 0,0 1.63,6.925 -1.222,12.628 -2.852,5.5 -9.166,16.092 -9.37,30.757 v 0 c -0.203,2.444 -0.61,7.536 -1.018,9.98 -15.888,-0.61 -40.33,-6.518 -64.365,-6.11 0.203,-2.647 0.407,-4.277 0.611,-6.925 h 0.61 c -1.222,-6.722 -1.629,-10.185 -2.852,-15.277 -7.74,-4.888 -15.888,-10.591 -22.812,-21.387 -6.722,-10.796 12.425,-45.829 12.425,-45.829 z"
           id="path6270"
           inkscape:connector-curvature="0" /><path
           d="m 274.071,413.438 c 0,0 12.629,45.219 -2.24,64.162 0,0 2.24,8.758 -2.852,18.128 -0.815,4.073 -1.834,7.74 -2.444,11.813 -2.648,16.906 -7.13,24.035 -8.352,51.125 l -12.222,-0.203 c 0,0 -1.426,-19.554 -5.703,-29.942 -2.443,-5.906 -12.018,-13.851 -11.609,-21.794 0.407,-6.111 1.629,-11.203 12.018,-19.351 0.814,-11.813 -11,-23.017 -9.166,-67.013 z"
           id="path6272"
           inkscape:connector-curvature="0" /><path
           d="m 270.405,411.604 c 3.259,20.776 10.795,51.533 -2.852,66.605 0.61,2.852 1.018,6.926 0.203,11.61 -0.407,2.444 -1.222,5.092 -2.24,7.943 -2.037,4.889 -2.852,12.018 -3.463,16.295 -2.648,16.906 -2.648,17.722 -3.87,44.812 l -12.222,-0.204 c 0,0 -1.426,-19.554 -5.703,-29.941 -2.443,-5.907 -7.536,-10.999 -7.943,-18.943 -0.407,-6.11 3.87,-18.331 14.055,-17.924 -0.611,-24.646 -12.018,-19.758 -15.073,-71.087 z"
           id="path6274"
           inkscape:connector-curvature="0"
           style="fill:#efefef" /><path
           d="m 195.448,303.447 c 0,0 4.481,1.426 9.369,1.833 4.889,0.407 10.185,0 14.869,-0.204 9.777,-0.814 23.628,-1.833 32.794,3.463 0,0 5.092,-1.63 10.592,-1.223 2.444,0.204 4.889,2.241 7.74,3.056 8.962,2.24 17.517,17.109 13.646,30.553 -0.407,1.019 -3.259,0 -6.518,1.019 0.61,2.852 1.019,9.37 -2.241,16.295 -3.462,6.926 -7.943,15.888 -7.129,32.998 -21.387,-1.019 -30.96,-2.444 -52.144,-3.463 -1.833,-7.537 -3.056,-15.073 -3.259,-18.943 2.852,-1.426 4.48,-2.647 6.722,-5.092 -6.11,1.019 -8.555,0.611 -12.222,-1.426 -3.666,-2.037 -10.184,-8.555 -13.443,-12.832 -0.407,-0.408 -2.647,6.313 -7.739,6.518 -1.834,-2.648 5.906,-10.185 4.48,-13.036 -5.091,-10.389 4.483,-39.516 4.483,-39.516 z"
           id="path6276"
           inkscape:connector-curvature="0"
           style="fill:#efefef" /><path
           d="m 272.033,394.698 c 0,0 0.407,7.333 0.407,9.166 0,2.037 1.63,8.147 1.833,10.999 -2.24,3.87 -12.017,12.629 -29.738,15.888 -17.517,3.666 -40.737,-23.831 -40.737,-23.831 0.611,-2.648 2.648,-10.389 4.074,-14.462 0.204,-0.407 0.611,-1.426 0.611,-1.833 1.834,-2.648 63.55,4.073 63.55,4.073 z"
           id="path6278"
           inkscape:connector-curvature="0" /><path
           d="m 267.553,395.31 c 0,5.092 0.814,8.759 1.426,12.018 1.018,5.907 2.647,9.777 2.647,13.647 0,11.813 -15.48,9.776 -28.517,10.184 -17.517,3.667 -32.386,-23.831 -32.386,-23.831 1.222,-4.685 2.037,-9.98 3.87,-14.462 v 0 c 0.203,-2.444 0.611,-5.499 0.814,-6.925 24.85,0 42.367,1.426 52.552,2.443 0.408,2.241 10e-4,6.111 -0.406,6.926 z"
           id="path6280"
           inkscape:connector-curvature="0"
           style="fill:#efefef" /><path
           d="m 247.998,421.585 c 0,0 -10.795,-24.035 -43.182,-16.905 -7.739,21.794 -18.128,46.848 -11.406,73.938 -6.722,9.166 -14.462,14.259 -14.462,31.164 0,16.906 0.815,19.758 0.815,19.758 l 23.831,1.223 c 0,0 7.74,-9.98 10.795,-20.776 0.815,-3.056 1.63,-8.555 1.019,-14.869 0.814,-1.222 4.277,-4.073 4.685,-9.573 0,0 11.61,-6.11 18.332,-20.979 6.315,-13.446 4.685,-25.056 9.573,-42.981 z"
           id="path6282"
           inkscape:connector-curvature="0" /><path
           d="m 247.998,421.585 c -0.61,-2.24 -8.758,-24.238 -38.904,-17.721 -17.72,47.256 -11.202,66.81 -8.555,75.364 -12.018,15.276 -17.517,18.535 -15.072,49.496 h 15.888 c 7.332,-11.61 8.962,-15.888 9.369,-31.164 0,-0.611 -2.24,1.222 -3.87,3.259 1.223,-6.314 4.685,-7.536 7.333,-11.406 1.222,-1.63 2.24,-4.074 2.24,-7.333 14.258,-9.573 19.554,-21.591 22.609,-34.016 2.445,-8.554 5.296,-22.609 8.962,-26.479 z"
           id="path6284"
           inkscape:connector-curvature="0"
           style="fill:#efefef" /><path
           d="m 197.688,388.792 c 0,0 5.5,0.203 10.389,1.833 4.685,1.629 4.685,2.647 6.518,4.685 1.833,2.038 6.314,5.092 5.5,8.147 -0.408,1.63 -1.426,2.037 -2.852,3.463 -0.611,0.611 -5.093,5.499 -6.111,6.11 -0.611,0.407 -1.426,1.019 -2.037,1.426 -0.61,0.407 -2.443,1.63 -3.055,2.037 -2.037,1.019 -3.463,1.63 -5.703,1.426 0,0 -5.092,-0.204 -8.352,-3.666 0,0 -0.407,-1.63 0.408,-2.444 0,0 -4.278,-3.667 -5.5,-6.111 -1.223,-2.443 -1.223,-5.906 -0.407,-7.739 0.407,-1.835 8.35,-6.927 11.202,-9.167 z"
           id="path6286"
           inkscape:connector-curvature="0" /><path
           d="m 202.781,586.979 -0.611,5.093 c 0,0 -1.833,2.24 -15.48,2.037 -13.851,-0.204 -17.517,-4.481 -18.739,-6.722 l -0.814,-5.296 c 0,0 2.648,-3.87 3.259,-3.87 4.481,0.407 19.758,6.518 30.35,8.147 1.016,0 1.219,0.407 2.035,0.611 z"
           id="path6288"
           inkscape:connector-curvature="0" /><path
           d="m 232.315,576.591 c 0,2.24 -0.204,2.24 -0.204,4.481 2.444,1.833 8.556,2.852 20.165,2.647 16.906,-0.407 32.59,5.093 51.736,1.833 l 0.204,-3.666 -1.833,-0.203 -67.828,-5.5 z"
           id="path6290"
           inkscape:connector-curvature="0" /><path
           d="m 247.184,583.72 c 1.63,0 3.259,0 5.092,0 11,-0.407 21.388,2.037 32.59,2.648 5.907,-0.204 13.24,-1.63 12.629,-5.907 l -57.847,-4.889 c -3.463,3.87 -0.816,7.129 7.536,8.148 z"
           id="path6292"
           inkscape:connector-curvature="0" /><path
           d="m 180.782,497.968 c 1.833,1.222 14.258,8.555 34.423,7.536 -0.408,3.87 -0.204,11.407 -9.166,24.646 -4.481,6.518 -8.352,17.925 -9.166,32.387 0.204,3.259 2.037,6.11 -0.407,10.388 0.814,2.647 4.073,7.943 5.703,11.202 1.629,3.26 2.444,6.926 -8.352,7.13 -10.999,0.203 -28.72,-1.019 -26.275,-9.573 1.223,-4.481 4.685,-9.166 5.093,-11 0.407,-1.833 0.407,-7.332 3.869,-10.999 3.056,-10.184 2.037,-19.961 1.427,-29.127 -1.019,-9.574 -1.223,-24.85 2.851,-32.59 z"
           id="path6294"
           inkscape:connector-curvature="0" /><path
           d="m 199.725,331.963 c 14.462,-19.351 2.24,-34.83 -20.979,-30.146 -9.37,1.833 -18.739,8.352 -19.351,20.165 -3.055,0.407 -9.98,0.814 -13.443,13.443 -2.647,9.777 -4.073,11.61 -8.759,16.498 -3.055,3.463 0.204,10.592 2.444,15.685 7.537,17.517 30.757,19.146 46.441,32.386 5.296,-1.426 10.795,-7.332 12.425,-11.202 -13.24,-15.685 -10.389,-21.795 -15.685,-29.942 5.704,-2.038 18.74,-9.981 16.907,-26.887 z"
           id="path6296"
           inkscape:connector-curvature="0" /><path
           d="m 196.873,330.741 c 0.814,-1.223 2.24,-3.87 2.852,-4.889 0.204,-0.204 2.444,3.666 2.648,3.463 5.499,-8.963 6.925,-21.999 0.61,-23.221 -1.426,-0.204 -4.073,-0.814 -6.314,-1.63 -4.073,-1.426 -7.739,-1.426 -14.258,-0.203 -8.962,1.629 -17.924,8.147 -17.924,17.517 0,0.611 6.313,2.444 8.147,9.981 -3.056,-4.278 -8.352,-8.963 -14.666,-4.889 -6.722,4.277 -3.259,14.054 -12.221,24.238 -3.056,3.463 -2.648,7.537 0.61,15.684 5.296,12.833 30.35,19.758 43.997,31.979 3.259,-1.426 5.499,-4.685 7.129,-7.129 -9.166,-9.573 -12.833,-18.536 -15.48,-25.054 -3.259,-7.536 -6.926,-11.813 -14.055,-17.518 3.667,1.426 6.519,2.852 8.147,4.074 1.833,1.222 4.481,1.426 6.926,0.611 8.76,-3.053 13.445,-15.275 13.852,-23.014 z"
           id="path6298"
           inkscape:connector-curvature="0"
           style="fill:#efefef" /><path
           d="m 285.477,334 c -0.611,7.74 -6.314,3.87 -9.369,2.444 -6.111,-2.648 -12.222,-4.481 -19.351,-4.481 -7.129,0 -16.295,0.611 -24.238,2.648 -10.999,3.055 -14.259,2.852 -19.147,0.407 -4.888,-2.648 -13.442,-9.166 -13.442,-9.166 0,0 -0.204,2.037 1.833,4.685 2.647,3.259 8.555,7.333 16.498,9.98 3.87,1.223 6.926,0.407 10.389,-0.407 18.128,-4.481 37.274,-5.296 53.365,4.481 0.815,0.407 3.667,-0.815 4.889,-2.648 1.628,-2.647 -1.427,-7.943 -1.427,-7.943 z"
           id="path6300"
           inkscape:connector-curvature="0" /><path
           d="m 192.8,411.604 c 1.629,1.019 3.666,1.63 5.906,3.463 0,0 -1.833,0 -2.647,-0.814 -1.019,-0.611 -3.056,-2.444 -3.259,-2.649 z"
           id="path6302"
           inkscape:connector-curvature="0"
           style="fill:#001423" /><path
           d="m 251.665,250.081 c -0.611,-1.833 -5.093,-5.093 -15.48,-5.093 -11.203,0 -14.462,3.463 -14.665,5.296 0,0.611 -0.815,7.13 -1.019,9.777 0,0 0,3.259 0.203,8.147 0.204,3.259 1.019,5.092 1.426,9.37 0.407,4.48 1.63,7.332 3.87,10.999 1.019,0.61 1.833,1.222 2.852,1.426 4.074,0.814 11.203,1.018 15.073,0 2.24,-0.611 5.092,-4.481 5.703,-7.944 0.814,-4.277 1.629,-7.333 1.833,-9.98 0.407,-2.647 0.611,-8.555 0.814,-10.185 0.612,-4.48 -0.407,-11.406 -0.61,-11.813 z"
           id="path6304"
           inkscape:connector-curvature="0"
           style="fill:#efefef" /><path
           d="m 230.278,501.838 c 0,0 10.796,4.685 37.479,0.611 0,0 -7.536,37.886 -4.073,56.828 0,0 3.462,4.889 29.127,14.258 0,0 11.406,2.852 10.999,8.556 0,0 0.407,1.222 -13.443,0.814 -13.85,-0.408 -26.887,-2.852 -36.053,-2.852 -9.166,0 -18.943,0.407 -20.572,-2.24 -1.833,-2.444 0.407,-8.759 3.055,-12.426 2.853,-3.869 2.037,-6.722 1.834,-13.646 -0.613,-18.128 -14.464,-36.867 -8.353,-49.903 z"
           id="path6306"
           inkscape:connector-curvature="0" /><path
           d="m 228.037,505.301 c -1.426,2.037 0.203,9.776 2.24,17.313 2.037,7.536 6.519,12.018 7.537,24.442 1.018,12.221 1.222,13.851 -2.241,20.979 -3.463,7.128 -4.481,13.647 7.536,13.851 12.017,0.204 18.536,-0.204 30.757,1.63 12.222,1.833 16.499,2.444 23.221,1.426 6.722,-1.018 8.147,-3.26 5.296,-5.296 -2.852,-2.037 -14.666,-4.277 -19.758,-8.352 -4.889,-3.666 -18.739,-9.777 -18.942,-11.406 -0.611,-5.5 -0.815,-25.461 0.203,-31.979 1.019,-6.519 2.444,-15.888 2.852,-18.332 0.408,-2.444 2.444,-4.889 -1.019,-4.074 -3.462,0.814 -16.498,2.648 -26.275,2.037 -9.777,-0.61 -10.795,-2.851 -11.407,-2.239 z"
           id="path6308"
           inkscape:connector-curvature="0"
           style="fill:#88ce02" /><path
           enable-background="new    "
           d="m 234.963,568.24 c 3.462,1.629 8.555,2.852 12.425,2.852 0,0 -1.427,6.722 0.814,10.795 2.24,4.074 -16.295,1.63 -16.295,1.63 l -0.814,-14.462 z"
           id="path6310"
           inkscape:connector-curvature="0"
           style="opacity:0.3" /><path
           enable-background="new    "
           d="m 288.94,585.757 c 3.259,-1.019 5.5,-4.685 2.852,-8.147 -2.852,-3.463 -5.296,-4.074 -1.63,-4.277 3.667,-0.204 17.11,7.943 17.11,7.943 l -6.926,6.314 z"
           id="path6312"
           inkscape:connector-curvature="0"
           style="opacity:0.3" /><path
           enable-background="new    "
           d="m 227.426,513.244 c 4.685,1.63 11.814,2.037 17.925,1.833 6.11,-0.203 15.276,-1.019 21.184,-3.055 5.906,-2.037 3.462,2.24 3.462,2.24 l -3.259,3.056 c 0,0 -7.74,3.055 -20.368,2.852 -14.869,-0.204 -19.351,-1.833 -19.351,-1.833 z"
           id="path6314"
           inkscape:connector-curvature="0"
           style="opacity:0.3" /><path
           enable-background="new    "
           d="m 227.833,523.429 c 4.686,1.63 11.814,2.037 17.925,1.833 6.11,-0.203 14.258,-0.203 20.165,-2.444 2.444,-0.814 1.019,2.648 1.019,2.648 l -1.019,1.833 c 0,0 -7.944,2.852 -20.369,2.647 -14.869,-0.203 -17.517,-1.426 -17.517,-1.426 z"
           id="path6316"
           inkscape:connector-curvature="0"
           style="opacity:0.3" /><path
           d="m 230.278,501.838 c 0,0 17.721,6.314 37.683,2.037 0,0 -7.74,36.46 -4.277,55.199 0,0 3.462,4.888 29.127,14.258 0,0 11.406,2.852 10.999,8.555 0,0 0.407,1.223 -13.443,0.814 -13.851,-0.407 -26.887,-2.852 -36.053,-2.852 -9.166,0 -18.943,0.408 -20.572,-2.24 -1.833,-2.444 0.407,-8.759 3.055,-12.425 2.853,-3.87 2.037,-6.722 1.834,-13.647 -0.613,-17.924 -14.464,-36.663 -8.353,-49.699 z"
           id="path6318"
           inkscape:connector-curvature="0"
           style="fill-opacity:0" /><path
           d="m 230.278,501.838 c 0,0 17.721,6.11 37.683,1.833 0,0 -7.74,36.664 -4.277,55.403 0,0 3.462,4.888 29.127,14.258 0,0 11.406,2.852 10.999,8.555 0,0 0.407,1.223 -13.443,0.814 -13.851,-0.407 -27.091,-4.277 -36.053,-2.852 -9.573,1.63 -18.943,1.019 -20.572,-2.24 -1.426,-2.647 0.407,-8.759 3.055,-12.425 2.853,-3.87 2.037,-6.722 1.834,-13.647 -0.613,-17.924 -14.464,-36.663 -8.353,-49.699 z"
           id="path6320"
           inkscape:connector-curvature="0"
           style="fill-opacity:0" /><path
           d="m 214.39,380.645 c 0,1.426 15.888,9.369 24.646,10.999 8.759,1.629 27.091,0 29.942,-0.611 l -0.408,2.852 c 0,0 -21.794,3.259 -38.496,-1.222 -16.703,-4.481 -14.869,-5.5 -14.869,-5.5 z"
           id="path6322"
           inkscape:connector-curvature="0" /><g
           id="g6328"><path
             d="m 180.374,554.389 c 2.444,1.223 11.203,3.463 16.906,2.241 0.814,-0.204 0,-14.055 2.241,-20.369 3.259,-8.759 8.555,-15.888 10.998,-31.367 -8.555,-0.815 -18.331,-3.056 -23.424,-4.686 -6.517,19.962 -4.276,37.071 -6.721,54.181 z"
             id="path6324"
             inkscape:connector-curvature="0"
             style="fill:#efefef" /><path
             d="m 194.022,567.222 c 1.426,0.407 2.444,2.036 2.852,1.019 0.814,-1.834 -1.426,-5.296 -1.63,-7.74 0,-0.204 0,0 0,-0.204 -1.833,-1.629 -14.258,-1.833 -13.443,-1.019 -1.426,2.648 -3.666,2.241 -4.48,7.537 -0.407,2.647 2.852,0.407 5.906,0.203 -5.499,3.666 -11.813,8.352 -12.832,12.425 -1.222,5.703 0.815,7.333 6.926,10.389 5.296,1.222 11.61,1.426 16.498,1.222 5.5,-1.019 6.519,-3.666 4.889,-7.333 -2.446,-5.5 -4.075,-12.629 -4.686,-16.499 z"
             id="path6326"
             inkscape:connector-curvature="0"
             style="fill:#efefef" /></g><path
           d="m 196.262,302.632 c 6.722,3.87 16.092,2.852 19.554,2.648 0.815,0 8.963,-1.426 9.37,-1.223 0.814,0.204 0.814,0.815 0.814,0.815 0,0 -3.055,1.629 -9.98,2.036 -6.518,0.407 -14.258,0 -18.535,-2.036 -5.093,-2.24 -1.223,-2.24 -1.223,-2.24 z"
           id="path6330"
           inkscape:connector-curvature="0" /><path
           d="m 265.516,306.502 c 1.222,0.814 9.166,3.87 12.629,7.536 3.055,3.26 1.426,3.056 0.814,2.241 -0.814,-1.019 -7.129,-5.296 -9.573,-6.314 -2.444,-1.018 -5.5,-2.852 -5.5,-3.259 0,-0.407 1.63,-0.204 1.63,-0.204 z"
           id="path6332"
           inkscape:connector-curvature="0" /><path
           d="m 195.243,391.032 c 5.907,-0.407 12.018,1.019 15.888,5.092 2.037,2.037 5.296,4.277 4.889,6.314 0,0.611 -1.223,2.241 -2.24,3.463 -0.611,0.814 -2.444,2.647 -3.056,3.259 -0.814,0.611 -3.666,2.852 -4.277,3.259 -0.611,0.408 -1.426,1.427 -2.037,1.63 -2.036,1.019 -4.277,0.204 -6.314,-0.814 -2.036,-1.019 0.408,-1.223 -1.833,-2.852 -5.499,-3.87 -8.555,-6.519 -6.314,-14.055 0.203,-1.426 2.443,-3.056 5.294,-5.296 z"
           id="path6334"
           inkscape:connector-curvature="0"
           style="fill:#efefef" /></g><path
         enable-background="new    "
         d="m 143.304,344.388 c -18.332,7.333 -64.977,30.554 -78.216,37.683 v 0 c 10.999,6.925 16.091,23.627 17.721,40.533 0.203,1.63 0.407,3.056 0.611,4.685 0.203,1.426 0.407,2.444 0.61,3.056 0,0.204 0,0.611 0.204,0.814 12.018,-32.793 54.995,-67.42 56.625,-70.068 0.814,-1.222 -1.019,-6.518 1.833,-11.609 3.667,-6.52 10.797,-9.372 0.612,-5.094 z"
         id="path6338"
         inkscape:connector-curvature="0"
         style="opacity:0.4" /><path
         enable-background="new    "
         d="m 186.893,498.172 c 9.369,-18.739 9.573,-36.664 9.369,-57.644 0,-8.759 6.314,-21.184 3.056,-17.721 -12.222,13.646 -42.978,39.312 -65.18,40.737 31.164,-1.018 43.385,14.666 52.755,34.628 z"
         id="path6340"
         inkscape:connector-curvature="0"
         style="opacity:0.4" /><path
         d="m 47.163,399.383 c 11.61,-8.351 71.698,-40.329 86.16,-44.811 14.461,-4.685 9.98,-10.185 9.98,-10.185 0,0 -58.662,25.257 -93.696,47.052"
         id="path6342"
         inkscape:connector-curvature="0" /><path
         enable-background="new    "
         d="m 218.26,340.518 c -4.685,-1.833 -8.351,3.667 -7.129,8.963 1.223,5.296 12.222,11.202 11.61,30.553 -0.407,15.888 -3.87,22.405 -3.87,22.405 l -7.74,-9.776 c 0,0 -1.222,-21.999 -3.87,-25.258 -2.647,-3.259 -10.999,-9.166 -14.258,-12.221 -3.259,-3.056 3.666,-7.129 3.259,-12.833 -0.407,-5.499 3.463,-16.498 3.463,-16.498 z"
         id="path6344"
         inkscape:connector-curvature="0"
         style="opacity:0.4" /><path
         enable-background="new    "
         d="m 246.573,427.288 c -0.407,15.276 3.056,37.886 4.481,48.682 1.426,10.795 3.259,11.61 0,16.499 -3.259,4.685 -7.536,12.425 -7.536,12.425 l -14.055,-1.223 c 0,0 11.203,-14.258 11.813,-16.906 0.611,-2.647 -5.703,-22.812 -5.703,-22.812 z"
         id="path6346"
         inkscape:connector-curvature="0"
         style="opacity:0.4" /><path
         enable-background="new    "
         d="m 219.483,284.708 c 2.852,6.313 6.314,9.165 11.813,10.999 3.259,1.222 16.091,2.852 21.184,-2.852 2.24,-2.648 0.814,-9.777 0.814,-9.777 l -11.61,9.369 -15.684,-2.851 -1.833,-4.685 z"
         id="path6348"
         inkscape:connector-curvature="0"
         style="opacity:0.4" /><path
         stroke-miterlimit="10"
         d="m 220.704,298.762 c 5.296,3.463 18.536,6.722 22.202,7.333 3.666,0.814 9.573,-3.87 12.425,-5.092 3.056,-1.426 8.352,-2.241 14.462,3.259 0.611,0.611 -1.426,3.259 -1.426,3.259 -0.204,-0.204 -1.426,-0.204 -3.056,-1.019 -1.629,-0.814 -3.055,-1.426 -5.499,-1.222 -10.185,1.222 -11.814,4.685 -20.776,2.647 -8.962,-2.038 -11.203,-3.666 -19.961,-3.259"
         id="path6350"
         inkscape:connector-curvature="0"
         style="fill:#88ce02;stroke:#000000;stroke-width:1.58599997;stroke-linejoin:round;stroke-miterlimit:10" /><path
         d="m 218.871,299.373 c 6.722,2.852 19.758,5.907 23.424,6.722 3.666,0.815 9.573,-2.852 12.425,-4.685 5.093,-3.259 11.61,-0.611 14.666,2.852 2.036,2.24 2.852,3.666 2.852,4.277 0,0.814 -2.444,0 -2.444,0 -1.426,-0.611 -3.056,-0.814 -4.277,-1.63 -1.63,-0.814 -3.26,-2.036 -5.703,-1.833 -10.185,1.223 -12.222,4.685 -20.98,2.648 -8.758,-2.037 -10.999,-3.87 -20.368,-3.26"
         id="path6352"
         inkscape:connector-curvature="0"
         style="fill:#88ce02" /><path
         d="m 187.3,489.616 c -0.407,-0.407 0.407,-0.814 0,-0.814 -2.647,0 -6.314,-2.037 -8.352,-4.889 -8.758,-12.628 -21.591,-20.979 -44.811,-20.368 -34.831,0.814 -48.682,-13.443 -51.329,-40.737 -1.426,-14.869 -5.5,-29.331 -13.851,-37.479 l -4.889,3.056 c 9.369,8.147 12.425,21.387 14.462,39.515 3.259,27.294 25.257,39.923 50.922,40.33 26.683,0.407 36.256,5.907 46.236,19.351 3.259,4.277 6.926,5.703 9.777,6.314 z"
         id="path6354"
         inkscape:connector-curvature="0" /><path
         enable-background="new    "
         d="m 281.811,358.646 c 0.611,3.055 2.24,8.962 5.499,11.813 1.427,1.426 1.63,1.833 0.408,1.833 -1.223,0 -10.185,-0.407 -10.185,-0.407 l -2.444,-4.277 z"
         id="path6356"
         inkscape:connector-curvature="0"
         style="opacity:0.4" /></g></g></svg>