<?xml version="1.0" encoding="UTF-8" standalone="no"?>
<!-- Generator: Adobe Illustrator 23.0.1, SVG Export Plug-In . SVG Version: 6.00 Build 0)  -->

<svg
   xmlns:dc="http://purl.org/dc/elements/1.1/"
   xmlns:cc="http://creativecommons.org/ns#"
   xmlns:rdf="http://www.w3.org/1999/02/22-rdf-syntax-ns#"
   xmlns:svg="http://www.w3.org/2000/svg"
   xmlns="http://www.w3.org/2000/svg"
   xmlns:sodipodi="http://sodipodi.sourceforge.net/DTD/sodipodi-0.dtd"
   xmlns:inkscape="http://www.inkscape.org/namespaces/inkscape"
   version="1.1"
   id="Layer_1"
   x="0px"
   y="0px"
   viewBox="0 0 174 174"
   xml:space="preserve"
   sodipodi:docname="hibernating-rhinos.svg"
   width="174"
   height="174"
   inkscape:version="0.92.1 r15371"><metadata
     id="metadata4601"><rdf:RDF><cc:Work
         rdf:about=""><dc:format>image/svg+xml</dc:format><dc:type
           rdf:resource="http://purl.org/dc/dcmitype/StillImage" /><dc:title></dc:title></cc:Work></rdf:RDF></metadata><defs
     id="defs4599" /><sodipodi:namedview
     pagecolor="#ffffff"
     bordercolor="#666666"
     borderopacity="1"
     objecttolerance="10"
     gridtolerance="10"
     guidetolerance="10"
     inkscape:pageopacity="0"
     inkscape:pageshadow="2"
     inkscape:window-width="1598"
     inkscape:window-height="881"
     id="namedview4597"
     showgrid="false"
     inkscape:zoom="0.77133851"
     inkscape:cx="729.90002"
     inkscape:cy="75.239071"
     inkscape:window-x="0"
     inkscape:window-y="0"
     inkscape:window-maximized="0"
     inkscape:current-layer="Layer_1"
     fit-margin-top="0"
     fit-margin-left="0"
     fit-margin-right="0"
     fit-margin-bottom="0" /><style
     type="text/css"
     id="style4560">
	.st0{fill:#FFFFFF;}
</style><g
     id="Layer_1_1_"
     style="fill:#000000;fill-opacity:1"
     transform="translate(0.05,2.8054638)"><g
       id="g4592"
       style="fill:#000000;fill-opacity:1"><path
         class="st0"
         d="m 171.6,58 c -5.7,8 -11.5,15.8 -18.6,22.6 -5.1,4.9 -10.6,9.4 -17.6,11.5 -5.9,1.9 -11.6,1.4 -17.1,-2 6,-9.9 11.5,-19.9 11.9,-31.8 -1.1,1 -2,2.2 -3,3.3 -6,6.6 -12.6,12.4 -20.8,16.1 -2.5,1.1 -4.6,1.2 -6.4,-1.2 -0.9,-1.2 -2.2,-2.2 -3.1,-3.5 -2.6,-3.6 -3.4,-7.8 -3.8,-11.9 2.3,0.5 4.4,1.3 6.5,1.2 3,-0.1 5.3,-2 7.1,-4.3 5,-6.1 6.9,-13.3 7.3,-21 0.1,-2 -0.2,-4 -0.3,-6.3 -0.8,0.5 -1.2,0.7 -1.6,1 -6.2,4 -12.8,7.1 -20.1,7.9 -3.1,0.3 -6.3,-0.1 -8.4,-3.1 -2.2,-3 -5.4,-5 -8.7,-6.6 C 74.1,29.5 73.3,29 72.5,28.5 68.8,25.8 65.1,23.2 60.7,21.8 57,20.6 53.4,20 49.2,22.1 c 2.8,3.9 5.2,7.7 8.1,11.2 1.9,2.2 3.2,4.3 2.9,7.4 0.2,-1.5 0.3,-2.9 0.5,-4.5 C 64,39.5 58.4,50.6 52.5,52.9 55.7,38.5 48.7,16.4 38.7,9.5 38.5,9.6 38.2,9.7 38.1,9.9 32.5,16.3 27.8,23.3 25.4,31.5 c -1.3,4.6 -2.2,9.3 -0.4,14 2.6,6.9 7.7,11.1 14.7,12.9 1.9,0.5 3.9,0.7 5.9,1 -4.5,0.7 -8.8,0.5 -13.1,-1.1 C 26.3,56 22.5,51.3 20.6,45 8.7,58.6 0,93.6 0,104.9 3.4,85.8 8.6,69.5 19.9,54.8 c -0.2,1 -0.6,1.9 -1,2.8 -2.4,5.6 -5.1,11.1 -7.2,16.8 -3.1,8.7 -5.8,15.7 -6.7,28.2 -0.6,7.9 -3.5,21.2 -3.5,21.2 0,0 14.2,-6 16.5,-7.6 1.9,-1.3 3.4,-3.1 5.1,-4.6 0.4,-0.4 1.6,-1.4 1.9,-1.8 0.2,0.5 0.5,1.1 0.9,1.5 8.8,10.3 18.7,19.3 30.3,26.4 8.9,5.5 18.2,10 29,10.5 0.7,0 1.4,0.4 2.1,0.6 8.4,3.2 16.7,6.4 25.1,9.5 4.4,1.6 11.4,-0.2 14.9,-3.7 v 0 0 c 0.2,-0.2 0.3,-0.4 0.5,-0.5 v 0 l 0.8,-1 c 1.6,0.2 3.3,0.5 4.9,0.7 1.5,0.2 2.1,-0.3 2.3,-1.9 0.5,-3.8 1.5,-7.4 2.2,-11.2 0.2,-1 0.3,-2.2 -0.1,-3.1 -1.7,-4.6 -1.2,-9.1 0.7,-13.5 0.4,-0.9 1.4,-1.5 2.3,-2.1 1.5,-0.9 3.2,-1.4 4.7,-2.4 7.5,-4.9 12,-12.4 15.9,-20.1 6.1,-12.2 9.8,-25.2 11.8,-38.6 0.3,-1.7 0.4,-3.3 0.6,-5 -1.2,0.6 -1.7,1.3 -2.3,2.1 z M 70.4,101.3 c 1.8,-3.4 6.1,-4 9.1,-2.8 2.6,1.1 4.8,3.5 3.9,6.2 -1.6,0.4 -2.3,1.2 -4.9,0.6 -2,-0.5 -4.5,-2.4 -6.3,-2.3 0.2,-1.5 0.9,-1.7 2.2,-2.8 -1.1,0.3 -2.5,0.2 -4,1.1 z"
         id="path4590"
         style="fill:#000000;fill-opacity:1"
         inkscape:connector-curvature="0" /></g></g><g
     id="Layer_2"
     style="fill:#000000;fill-opacity:1"
     transform="translate(0,15.110931)" /></svg>