<?xml version="1.0" encoding="UTF-8"?>
<!DOCTYPE svg PUBLIC "-//W3C//DTD SVG 1.1//EN" "http://www.w3.org/Graphics/SVG/1.1/DTD/svg11.dtd">
<svg version="1.1" xmlns="http://www.w3.org/2000/svg" xmlns:xlink="http://www.w3.org/1999/xlink" x="0" y="0" width="500" height="100" viewBox="0, 0, 500, 100">
  <g id="Layer_1">
    <path d="M119.374,49.72 L119.374,60.38 Q119.374,64.48 119.456,65.218 Q119.866,68.908 121.67,68.908 Q122.08,68.908 123.72,68.498 Q124.13,68.334 124.95,68.334 Q128.066,68.334 128.066,71.04 Q128.066,72.188 127.041,73.008 Q126.016,73.828 124.458,73.828 Q123.146,73.828 120.481,73.459 Q117.816,73.09 116.504,73.09 Q114.372,73.09 111.748,73.418 Q108.55,73.828 107.484,73.828 Q104.204,73.828 104.204,71.04 Q104.204,68.334 106.992,68.334 Q107.648,68.334 108.919,68.58 Q110.19,68.826 110.846,68.826 Q112.814,68.826 113.224,63.578 Q113.224,63.25 113.224,56.444 L113.224,49.72 Q113.224,42.914 113.224,42.586 Q112.814,37.42 110.764,37.42 Q110.108,37.42 108.919,37.707 Q107.73,37.994 107.156,37.994 Q104.204,37.994 104.204,35.37 Q104.204,32.582 107.812,32.582 Q109.37,32.582 110.026,32.664 Q112.65,32.992 113.388,32.992 Q114.044,32.992 115.397,32.787 Q116.75,32.582 117.406,32.582 Q119.784,32.582 119.784,35.78 Q119.784,36.108 119.702,36.764 Q119.62,37.42 119.62,37.748 Q119.538,38.404 119.456,42.832 Q119.374,46.194 119.374,49.72 z M115.11,28.236 Q113.224,28.236 111.871,26.883 Q110.518,25.53 110.518,23.644 Q110.518,21.758 111.871,20.446 Q113.224,19.134 115.11,19.134 Q116.996,19.134 118.349,20.446 Q119.702,21.758 119.702,23.644 Q119.702,25.53 118.349,26.883 Q116.996,28.236 115.11,28.236 z" fill="#000000"/>
    <path d="M149.878,31.106 Q157.996,31.106 162.014,37.42 L162.014,29.138 Q162.014,25.858 161.85,25.12 Q161.44,22.578 159.554,22.578 Q158.898,22.578 157.709,22.824 Q156.52,23.07 155.864,23.07 Q152.83,23.07 152.83,20.446 Q152.83,17.74 156.93,17.74 Q157.586,17.74 159.308,17.904 Q161.932,18.15 162.014,18.15 Q162.752,18.15 164.146,17.986 Q165.54,17.822 166.278,17.822 Q168.574,17.822 168.574,21.102 L168.574,22.004 Q168.492,22.25 168.41,26.35 Q168.41,26.842 168.164,32.664 Q168,36.764 168,38.896 L168,46.932 L168.164,60.626 Q168.246,66.038 168.656,67.35 Q169.066,68.662 170.624,68.662 Q171.69,68.662 172.264,68.498 Q173.576,68.334 174.068,68.334 Q177.102,68.334 177.102,71.04 Q177.102,73.828 173.412,73.828 Q172.592,73.828 170.911,73.623 Q169.23,73.418 168.41,73.418 Q168.164,73.418 166.524,73.582 Q165.54,73.828 164.802,73.828 Q162.588,73.828 162.588,70.876 L162.588,70.466 L162.67,69.072 Q158.324,74.894 150.042,74.894 Q141.678,74.894 136.594,68.826 Q131.51,62.758 131.51,52.918 Q131.51,42.996 136.512,37.051 Q141.514,31.106 149.878,31.106 z M161.522,60.052 Q161.85,57.346 161.85,53.082 Q161.85,47.588 161.44,45.62 Q160.702,41.52 157.914,39.224 Q154.634,36.518 150.37,36.518 Q144.63,36.518 141.391,40.864 Q138.152,45.21 138.152,52.754 Q138.152,60.544 141.514,65.013 Q144.876,69.482 150.698,69.482 Q155.126,69.482 158.078,66.899 Q161.03,64.316 161.522,60.052 z" fill="#000000"/>
    <path d="M217.938,49.392 Q217.938,52.508 217.528,53.205 Q217.118,53.902 215.15,53.902 L189.074,53.902 Q188.008,53.902 187.68,54.189 Q187.352,54.476 187.352,55.132 Q187.352,61.282 191.042,65.382 Q194.732,69.482 200.226,69.482 Q203.834,69.482 206.827,67.514 Q209.82,65.546 210.722,62.512 L211.46,60.134 Q212.034,58.166 214.166,58.166 Q217.2,58.166 217.2,61.282 Q217.2,66.612 211.788,70.753 Q206.376,74.894 199.488,74.894 Q190.878,74.894 185.794,69.113 Q180.71,63.332 180.71,53.574 Q180.71,43.57 186.122,37.338 Q191.534,31.106 200.226,31.106 Q207.934,31.106 212.936,36.272 Q217.938,41.438 217.938,49.392 z M188.172,47.26 Q188.172,48.408 189.976,48.408 L209.574,48.408 Q211.296,48.408 211.296,47.26 Q211.296,42.914 208.016,39.716 Q204.736,36.518 200.308,36.518 Q195.716,36.518 191.944,39.839 Q188.172,43.16 188.172,47.26 z" fill="#000000"/>
    <path d="M243.03,32.5 Q251.64,32.5 257.011,38.404 Q262.382,44.308 262.382,53.82 Q262.382,63.086 257.011,68.908 Q251.64,74.73 243.03,74.73 Q234.666,74.73 229.336,68.662 Q224.006,62.594 224.006,53.082 Q224.006,43.98 229.336,38.24 Q234.666,32.5 243.03,32.5 z M243.03,73.09 Q250.574,73.09 255.33,67.801 Q260.086,62.512 260.086,54.066 Q260.086,45.21 255.371,39.675 Q250.656,34.14 243.112,34.14 Q235.568,34.14 230.935,39.429 Q226.302,44.718 226.302,53.246 Q226.302,62.184 230.894,67.637 Q235.486,73.09 243.03,73.09 z" fill="#000000"/>
    <path d="M290.016,58.986 Q282.472,58.986 277.88,54.394 L277.388,54.394 Q275.42,54.394 274.19,55.542 Q272.96,56.69 272.96,58.576 Q272.96,64.316 283.948,64.48 L289.77,64.562 Q299.692,64.726 304.366,66.612 Q311.582,69.564 311.582,76.534 Q311.582,82.602 306.088,85.8 Q300.594,88.998 290.18,88.998 Q279.93,88.998 274.272,85.841 Q268.614,82.684 268.614,76.862 Q268.614,69.236 278.782,65.71 Q270.664,64.48 270.664,58.494 Q270.664,53.82 276.568,52.344 Q275.174,49.392 275.174,46.44 Q275.174,40.372 279.397,36.436 Q283.62,32.5 290.098,32.5 Q294.69,32.5 299.692,35.288 Q299.364,33.894 299.364,33.074 Q299.364,30.286 301.537,28.4 Q303.71,26.514 306.99,26.514 Q309.778,26.514 311.582,28.072 Q313.386,29.63 313.386,32.008 Q313.386,33.648 312.361,34.837 Q311.336,36.026 309.86,36.026 Q307.318,36.026 307.318,33.566 Q307.318,31.27 309.368,31.27 Q309.45,31.27 310.106,31.434 Q309.942,31.434 310.516,31.516 Q311.09,31.516 311.09,30.86 Q311.09,29.876 309.901,29.138 Q308.712,28.4 307.072,28.4 Q304.448,28.4 302.89,29.876 Q301.332,31.352 301.332,33.812 Q301.332,35.124 301.988,36.436 L303.628,39.716 Q305.022,42.504 305.022,45.866 Q305.022,51.77 300.881,55.378 Q296.74,58.986 290.016,58.986 z M290.098,57.346 Q295.838,57.346 299.282,54.23 Q302.726,51.114 302.726,45.866 Q302.726,40.536 299.323,37.338 Q295.92,34.14 290.262,34.14 Q284.522,34.14 280.996,37.461 Q277.47,40.782 277.47,46.194 Q277.47,51.278 280.914,54.312 Q284.358,57.346 290.098,57.346 z M290.426,87.358 Q299.364,87.358 304.325,84.57 Q309.286,81.782 309.286,76.698 Q309.286,66.202 289.278,66.202 Q280.504,66.202 275.707,68.99 Q270.91,71.778 270.91,76.944 Q270.91,81.946 275.953,84.652 Q280.996,87.358 290.426,87.358 z" fill="#000000"/>
    <path d="M329.54,40.372 Q334.05,32.5 342.414,32.5 Q347.334,32.5 350.491,35.247 Q353.648,37.994 353.648,42.34 Q353.648,45.21 352.213,47.137 Q350.778,49.064 348.564,49.064 Q345.612,49.064 345.612,46.358 Q345.612,43.898 348.072,43.898 Q348.728,43.898 349.384,44.39 Q350.04,44.882 350.286,44.882 Q351.352,44.882 351.352,41.93 Q351.352,38.486 348.81,36.313 Q346.268,34.14 342.168,34.14 Q335.116,34.14 331.918,39.388 Q329.54,43.324 329.54,51.524 L329.54,58.494 Q329.54,68.088 330.196,70.056 Q330.852,72.024 333.968,72.024 Q334.542,72.024 335.69,71.942 Q336.838,71.86 337.412,71.86 L337.822,71.86 Q339.626,71.86 339.626,72.844 Q339.626,73.91 338.068,73.91 Q337.822,73.91 337.822,73.91 L334.952,73.664 L331.59,73.418 L329.13,73.336 L327.654,73.336 L325.276,73.418 L321.914,73.664 L319.044,73.91 Q318.962,73.91 318.798,73.91 Q317.24,73.91 317.24,72.926 Q317.24,71.86 319.044,71.86 L319.454,71.86 Q320.028,71.86 321.176,71.942 Q322.324,72.024 322.898,72.024 Q326.096,72.024 326.752,70.056 Q327.408,68.088 327.408,58.494 L327.408,45.62 Q327.408,39.716 327.408,40.454 Q327.244,36.19 326.178,35.534 Q325.522,35.124 324.046,35.124 Q323.554,35.124 321.34,35.288 L318.88,35.452 Q317.24,35.452 317.24,34.386 Q317.24,33.32 318.634,33.32 Q319.372,33.32 321.258,33.484 Q322.16,33.566 323.144,33.566 L324.374,33.566 Q325.276,33.566 326.998,33.32 Q327.162,33.32 327.408,33.238 Q327.736,33.238 327.818,33.238 Q329.54,33.238 329.54,35.042 z" fill="#000000"/>
    <path d="M387.514,66.038 L387.432,65.382 L387.104,65.956 Q386.038,67.76 384.07,69.728 Q378.986,74.73 371.442,74.73 Q365.538,74.73 361.848,71.614 Q358.158,68.498 358.158,63.496 Q358.158,59.314 360.782,56.28 Q363.406,53.246 367.752,52.344 Q370.704,51.77 374.722,51.524 Q381.364,51.114 384.316,49.187 Q387.268,47.26 387.268,43.242 Q387.268,39.142 384.07,36.641 Q380.872,34.14 375.624,34.14 Q370.13,34.14 366.563,36.518 Q362.996,38.896 362.996,42.504 Q362.996,43.816 363.734,43.816 Q363.898,43.816 364.226,43.488 Q364.226,43.406 364.39,42.996 Q364.964,41.602 366.604,41.602 Q369.064,41.602 369.064,44.226 Q369.064,45.62 367.957,46.645 Q366.85,47.67 365.292,47.67 Q363.406,47.67 362.053,46.235 Q360.7,44.8 360.7,42.832 Q360.7,38.404 364.923,35.452 Q369.146,32.5 375.46,32.5 Q381.856,32.5 385.546,35.534 Q389.564,38.896 389.564,46.03 L389.564,61.856 L389.728,66.448 Q389.974,73.09 393.992,73.09 Q398.42,73.09 398.42,67.022 L398.42,66.612 L398.338,63.004 Q398.256,60.626 399.486,60.626 Q400.552,60.626 400.552,62.266 L400.47,65.546 Q400.224,74.73 393.91,74.73 Q388.006,74.73 387.596,67.514 z M371.77,73.09 Q378.33,73.09 382.881,68.498 Q387.432,63.906 387.432,57.428 L387.432,49.474 Q387.432,48.654 387.104,48.654 Q387.022,48.654 386.202,49.638 Q383.578,52.836 374.558,53.41 Q369.31,53.738 366.727,54.64 Q364.144,55.542 362.422,57.674 Q360.454,60.052 360.454,63.578 Q360.454,67.678 363.652,70.384 Q366.85,73.09 371.77,73.09 z" fill="#000000"/>
    <path d="M414.492,35.452 L414.492,40.372 Q418.756,32.5 428.022,32.5 Q435.238,32.5 438.6,36.436 Q440.076,38.158 441.306,41.52 Q443.028,38.076 444.75,36.354 Q448.768,32.5 455.246,32.5 Q460.084,32.5 463.487,34.509 Q466.89,36.518 467.956,40.044 Q468.53,41.93 468.612,44.554 Q468.694,47.178 468.694,50.376 L468.694,58.494 Q468.694,68.006 469.35,70.015 Q470.006,72.024 473.122,72.024 Q473.696,72.024 474.844,71.942 Q475.992,71.86 476.566,71.86 L476.976,71.86 Q478.78,71.86 478.78,72.844 Q478.78,73.91 477.304,73.91 Q476.976,73.91 476.976,73.91 L474.106,73.664 L470.744,73.418 L468.448,73.336 L466.808,73.336 L464.43,73.418 L461.068,73.664 L458.198,73.91 Q458.116,73.91 457.952,73.91 Q456.394,73.91 456.394,72.926 Q456.394,71.86 458.198,71.86 L458.608,71.86 Q459.182,71.86 460.33,71.942 Q461.478,72.024 462.052,72.024 Q465.25,72.024 465.906,70.097 Q466.562,68.17 466.562,58.494 L466.562,49.638 Q466.562,43.406 466.316,41.807 Q466.07,40.208 464.676,38.322 Q461.642,34.14 454.918,34.14 Q447.456,34.14 444.012,39.88 Q441.88,43.488 441.88,51.196 L441.88,58.494 Q441.88,68.17 442.495,70.097 Q443.11,72.024 446.39,72.024 Q446.964,72.024 448.112,71.942 Q449.26,71.86 449.834,71.86 L450.162,71.86 Q451.966,71.86 451.966,72.844 Q451.966,73.91 450.49,73.91 L450.162,73.91 L447.374,73.664 L444.012,73.418 L441.552,73.336 L439.994,73.336 L437.698,73.418 L434.254,73.664 L431.384,73.91 Q431.302,73.91 431.138,73.91 Q429.58,73.91 429.58,72.926 Q429.58,71.86 431.384,71.86 L431.794,71.86 Q432.368,71.86 433.557,71.942 Q434.746,72.024 435.32,72.024 Q438.436,72.024 439.092,70.056 Q439.748,68.088 439.748,58.494 L439.748,48.244 Q439.748,44.226 439.584,42.996 Q439.174,40.29 437.452,38.158 Q434.254,34.14 427.94,34.14 Q420.97,34.14 417.116,39.224 Q414.656,42.504 414.656,48.9 L414.656,58.494 Q414.656,68.088 415.271,70.056 Q415.886,72.024 419.002,72.024 Q419.576,72.024 420.765,71.942 Q421.954,71.86 422.528,71.86 L422.938,71.86 Q424.742,71.86 424.742,72.844 Q424.742,73.91 423.184,73.91 Q422.938,73.91 422.938,73.91 L420.068,73.664 L416.624,73.418 L414.492,73.336 L412.77,73.336 L410.474,73.418 L407.03,73.664 L404.16,73.91 Q404.078,73.91 403.914,73.91 Q402.356,73.91 402.356,72.926 Q402.356,71.86 404.16,71.86 L404.57,71.86 Q405.144,71.86 406.292,71.942 Q407.44,72.024 408.014,72.024 Q411.212,72.024 411.868,70.056 Q412.524,68.088 412.524,58.494 L412.524,45.62 Q412.524,39.552 412.524,40.454 Q412.36,36.19 411.212,35.534 Q410.638,35.124 409.162,35.124 Q408.67,35.124 406.456,35.288 L404.242,35.452 Q404.16,35.452 403.996,35.452 Q402.356,35.452 402.356,34.386 Q402.356,33.32 403.75,33.32 L403.996,33.32 L406.374,33.566 L410.064,33.566 Q410.556,33.566 411.622,33.443 Q412.688,33.32 413.18,33.32 Q414.492,33.32 414.492,35.452 z" fill="#000000"/>
    <path d="M82.986,64.016 Q82.986,66.312 79.65,66.312 Q78.611,66.312 76.587,66.121 Q74.564,65.93 73.579,65.93 Q71.392,65.93 67.345,66.75 L66.197,66.258 Q69.97,64.672 72.322,62.758 Q71.173,61.172 70.189,58.055 Q68.986,54.336 68.439,53.188 Q67.783,53.68 64.829,58.711 Q56.572,72.82 51.65,73.203 Q50.556,71.891 49.9,69.867 Q50.119,68.062 51.212,63.961 Q52.197,60.133 52.361,58.219 Q50.884,58.875 45.853,63.578 Q42.517,66.75 39.126,69.922 Q37.267,69.812 37.267,66.914 Q37.267,65.984 37.431,65.602 Q37.705,64.945 41.97,61.336 Q44.54,59.148 47.111,56.906 Q48.205,55.922 50.392,54.281 Q50.556,54.227 50.501,54.227 Q50.337,54.227 47.767,55.129 Q45.197,56.031 44.54,56.141 Q43.83,55.758 43.83,54.883 Q43.83,53.461 44.595,52.039 Q44.814,51.656 50.119,47.5 Q47.986,46.625 47.986,45.203 Q49.08,43.125 51.759,41.484 Q54.111,40.227 56.517,38.969 L56.681,37.109 Q52.197,39.078 51.103,39.078 Q50.228,39.078 48.587,38.094 Q47.165,37.273 46.345,36.508 L46.509,35.742 Q49.462,35.359 52.251,33.992 Q57.337,31.477 57.501,31.422 Q57.939,29.18 58.431,26.992 Q59.142,23.656 59.798,23.219 Q60.892,23 60.892,23 Q62.04,23 62.451,25.324 Q62.861,27.648 63.955,27.648 Q64.337,27.648 65.13,27.512 Q65.923,27.375 66.361,27.375 Q68.275,27.375 68.658,28.852 Q67.509,31.039 64.665,32.242 Q62.314,33.227 60.181,35.305 Q59.962,36.781 59.908,37.766 L61.056,37.219 Q64.72,37.328 65.704,39.625 Q63.408,41.047 61.111,42.523 Q58.158,44.492 58.267,46.516 L58.267,46.844 Q59.634,46.188 61.603,44.984 Q61.767,44.93 61.931,44.93 Q62.97,44.93 64.611,45.668 Q66.251,46.406 66.579,47.281 Q66.197,48.211 63.955,49.25 Q62.314,49.961 60.673,50.672 Q57.501,52.258 55.205,55.703 Q56.462,55.758 56.845,56.961 Q56.408,57.344 56.189,57.727 Q55.806,58.438 55.15,61.746 Q54.494,65.055 54.494,65.984 Q54.494,66.641 54.548,66.914 Q56.08,65.547 58.212,63.086 Q62.97,57.016 68.439,50.508 Q68.712,50.18 69.259,50.18 Q71.72,50.18 72.431,51.383 Q72.595,55.047 75.329,57.398 Q75.658,57.672 80.361,60.461 Q82.986,62.047 82.986,64.016 z M56.298,42.086 Q53.673,43.344 52.415,44.273 Q52.689,44.492 53.455,44.656 Q54.712,43.891 55.095,43.562 Q55.97,42.906 56.298,42.086 z M53.728,49.031 L53.126,48.703 Q52.415,49.141 51.54,49.742 z" fill="#C4000C"/>
    <path d="M32.627,15.5 L86.157,15.5 C89.324,15.5 91.892,18.563 91.892,22.342 L91.892,73.658 C91.892,77.437 89.324,80.5 86.157,80.5 L32.627,80.5 C29.46,80.5 26.892,77.437 26.892,73.658 L26.892,22.342 C26.892,18.563 29.46,15.5 32.627,15.5 z" fill-opacity="0" stroke="#D11D0A" stroke-width="5"/>
  </g>
</svg>
