<?xml version="1.0" encoding="UTF-8" standalone="no"?>
<svg
   xmlns:dc="http://purl.org/dc/elements/1.1/"
   xmlns:cc="http://creativecommons.org/ns#"
   xmlns:rdf="http://www.w3.org/1999/02/22-rdf-syntax-ns#"
   xmlns:svg="http://www.w3.org/2000/svg"
   xmlns="http://www.w3.org/2000/svg"
   xmlns:sodipodi="http://sodipodi.sourceforge.net/DTD/sodipodi-0.dtd"
   xmlns:inkscape="http://www.inkscape.org/namespaces/inkscape"
   width="222"
   height="222"
   viewBox="0 0 221.99931 221.99605"
   version="1.1"
   id="svg4543"
   sodipodi:docname="itchio.svg"
   inkscape:version="0.92.1 r15371">
  <metadata
     id="metadata4549">
    <rdf:RDF>
      <cc:Work
         rdf:about="">
        <dc:format>image/svg+xml</dc:format>
        <dc:type
           rdf:resource="http://purl.org/dc/dcmitype/StillImage" />
        <dc:title></dc:title>
      </cc:Work>
    </rdf:RDF>
  </metadata>
  <defs
     id="defs4547" />
  <sodipodi:namedview
     pagecolor="#ffffff"
     bordercolor="#666666"
     borderopacity="1"
     objecttolerance="10"
     gridtolerance="10"
     guidetolerance="10"
     inkscape:pageopacity="0"
     inkscape:pageshadow="2"
     inkscape:window-width="1598"
     inkscape:window-height="881"
     id="namedview4545"
     showgrid="false"
     fit-margin-top="0"
     fit-margin-left="0"
     fit-margin-right="0"
     fit-margin-bottom="0"
     inkscape:zoom="1.4533157"
     inkscape:cx="387.38601"
     inkscape:cy="99.478075"
     inkscape:window-x="0"
     inkscape:window-y="0"
     inkscape:window-maximized="0"
     inkscape:current-layer="svg4543" />
  <g
     id="g4541"
     style="fill:#00000e;fill-opacity:1"
     transform="translate(0.443155,11.528557)">
    <path
       d="M 28.832,1.228 C 19.188,6.954 0.186,28.785 0.004,34.51 v 9.478 c 0,12.014 11.23,22.572 21.424,22.572 12.24,0 22.44,-10.146 22.442,-22.187 0,12.04 9.85,22.187 22.093,22.187 12.242,0 21.776,-10.146 21.776,-22.187 0,12.04 10.47,22.187 22.71,22.187 h 0.22 c 12.24,0 22.72,-10.146 22.72,-22.187 0,12.04 9.53,22.187 21.77,22.187 12.24,0 22.09,-10.146 22.09,-22.187 0,12.04 10.2,22.187 22.44,22.187 10.19,0 21.42,-10.557 21.42,-22.572 V 34.51 c -0.19,-5.725 -19.19,-27.556 -28.83,-33.282 -29.97,-1.053 -50.76,-1.234 -81.73,-1.23 C 79.59,0 37.36,0.483 28.83,1.228 Z m 58.753,59.674 c -1.166,2.046 -2.627,3.903 -4.308,5.546 -4.62,4.52 -10.956,7.32 -17.94,7.32 -6.985,0 -13.356,-2.8 -17.976,-7.322 -1.67,-1.64 -2.94,-3.394 -4.11,-5.436 v 0.004 c -1.16,2.046 -2.79,3.798 -4.46,5.44 -4.62,4.52 -10.99,7.317 -17.97,7.317 -0.84,0 -1.71,-0.23 -2.42,-0.47 -0.982,10.25 -1.4,20.04 -1.545,27.19 v 0.04 c -0.02,3.63 -0.035,6.61 -0.054,10.75 0.19,21.51 -2.13,69.7 9.48,81.54 17.99,4.2 51.094,6.11 84.31,6.12 h 0.003 c 33.214,-0.01 66.32,-1.92 84.31,-6.11 11.61,-11.843 9.29,-60.033 9.48,-81.536 -0.017,-4.14 -0.034,-7.122 -0.053,-10.75 v -0.04 c -0.15,-7.142 -0.565,-16.935 -1.55,-27.183 -0.71,0.24 -1.587,0.473 -2.43,0.473 -6.98,0 -13.354,-2.797 -17.975,-7.316 -1.675,-1.644 -3.3,-3.396 -4.463,-5.44 l -0.005,-0.006 c -1.166,2.04 -2.437,3.797 -4.112,5.436 -4.62,4.522 -10.99,7.322 -17.973,7.322 -6.983,0 -13.32,-2.8 -17.94,-7.32 -1.68,-1.644 -3.14,-3.5 -4.31,-5.547 -1.163,2.04 -2.59,3.907 -4.266,5.546 -4.62,4.52 -10.99,7.32 -17.98,7.32 -0.244,0 -0.49,-0.01 -0.73,-0.02 h -0.008 c -0.243,0.01 -0.486,0.02 -0.73,0.02 -6.986,0 -13.357,-2.8 -17.978,-7.32 -1.678,-1.64 -3.106,-3.503 -4.27,-5.544 z m -18.462,23.873 -0.002,0.008 h 0.02 c 7.31,0.016 13.81,0 21.85,8.783 6.34,-0.663 12.95,-0.996 19.58,-0.985 h 0.01 c 6.63,-0.01 13.24,0.33 19.58,0.99 8.05,-8.78 14.54,-8.76 21.85,-8.78 h 0.02 v -0.01 c 3.458,0 17.27,0 26.9,27.04 l 10.347,37.1 c 7.665,27.6 -2.453,28.28 -15.073,28.3 -18.72,-0.69 -29.08,-14.29 -29.08,-27.88 -10.36,1.7 -22.45,2.55 -34.535,2.55 h -0.005 c -12.086,0 -24.172,-0.85 -34.53,-2.55 0,13.59 -10.36,27.18 -29.078,27.88 -12.62,-0.02 -22.74,-0.7 -15.073,-28.29 l 10.34,-37.1 c 9.63,-27.04 23.45,-27.04 26.9,-27.04 z m 41.44,21.25 v 0.007 c -0.017,0.017 -19.702,18.096 -23.24,24.526 l 12.89,-0.516 v 11.24 c 0,0.527 5.174,0.313 10.35,0.074 h 0.007 c 5.177,0.24 10.35,0.453 10.35,-0.073 v -11.24 l 12.89,0.514 c -3.538,-6.43 -23.24,-24.525 -23.24,-24.525 v -0.006 l -0.002,0.002 z"
       id="path4539"
       style="color:#000000;fill:#00000e;fill-opacity:1"
       inkscape:connector-curvature="0" />
  </g>
</svg>
