<?xml version="1.0" encoding="UTF-8" standalone="no"?>
<svg
   xmlns:dc="http://purl.org/dc/elements/1.1/"
   xmlns:cc="http://creativecommons.org/ns#"
   xmlns:rdf="http://www.w3.org/1999/02/22-rdf-syntax-ns#"
   xmlns:svg="http://www.w3.org/2000/svg"
   xmlns="http://www.w3.org/2000/svg"
   xmlns:sodipodi="http://sodipodi.sourceforge.net/DTD/sodipodi-0.dtd"
   xmlns:inkscape="http://www.inkscape.org/namespaces/inkscape"
   width="300"
   height="300"
   viewBox="0 0 300 300"
   version="1.1"
   xml:space="preserve"
   style="clip-rule:evenodd;fill-rule:evenodd;stroke-linejoin:round;stroke-miterlimit:1.41420996"
   id="svg4644"
   sodipodi:docname="particular.svg"
   inkscape:version="0.92.1 r15371"><metadata
     id="metadata4650"><rdf:RDF><cc:Work
         rdf:about=""><dc:format>image/svg+xml</dc:format><dc:type
           rdf:resource="http://purl.org/dc/dcmitype/StillImage" /><dc:title></dc:title></cc:Work></rdf:RDF></metadata><defs
     id="defs4648" /><sodipodi:namedview
     pagecolor="#ffffff"
     bordercolor="#666666"
     borderopacity="1"
     objecttolerance="10"
     gridtolerance="10"
     guidetolerance="10"
     inkscape:pageopacity="0"
     inkscape:pageshadow="2"
     inkscape:window-width="1598"
     inkscape:window-height="881"
     id="namedview4646"
     showgrid="false"
     fit-margin-top="0"
     fit-margin-left="0"
     fit-margin-right="0"
     fit-margin-bottom="0"
     inkscape:zoom="0.99734278"
     inkscape:cx="342.27792"
     inkscape:cy="134.81755"
     inkscape:window-x="0"
     inkscape:window-y="0"
     inkscape:window-maximized="0"
     inkscape:current-layer="Particular-bw" /><g
     id="Particular-bw"
     transform="translate(1.1312816e-4,29.682459)"><g
       id="g4655"
       transform="translate(0.22994344,-14.841358)"><path
         inkscape:connector-curvature="0"
         id="path4619"
         style="fill:#00729c;fill-rule:nonzero"
         d="M 247.46,37.887 C 222.593,15.366 194.441,5.044 181.304,2.229 177.081,1.29 173.796,0.821 171.92,0.352 c -2.346,-0.469 -4.223,-0.469 -4.692,0 0.938,0.938 4.222,2.815 8.445,4.692 8.446,4.223 28.152,14.076 43.635,29.559 10.792,10.791 20.645,25.806 23.46,39.412 0.938,3.285 0.938,6.569 0.938,9.384 -0.469,14.076 -14.545,22.521 -37.066,23.46 -6.569,0.469 -9.853,5.161 -9.853,12.668 1.407,16.891 15.952,42.227 37.066,51.611 7.976,3.285 15.484,4.223 22.991,3.285 19.706,-2.815 35.189,-21.583 35.658,-46.92 0,-3.753 -0.469,-7.507 -0.938,-11.729 C 287.341,88.56 267.635,56.655 247.46,37.887 Z" /><path
         inkscape:connector-curvature="0"
         id="path4621"
         style="fill:#00729c;fill-rule:nonzero"
         d="m 17.555,171.608 c 3.284,-0.47 5.63,-7.508 8.915,-18.299 4.222,-14.545 10.322,-44.104 30.497,-69.441 14.076,-17.829 38.474,-34.251 66.157,-37.535 0.469,0 0.938,0 1.407,0 20.645,-1.408 45.981,7.976 65.218,24.867 4.223,3.754 8.915,5.63 13.607,6.1 10.791,0.469 19.237,-7.507 17.829,-18.768 -0.469,-2.815 -1.877,-6.1 -4.223,-9.384 -14.545,-21.583 -60.057,-42.697 -98.53,-40.351 -0.47,0 -0.939,0 -1.408,0 C 73.858,12.082 33.508,40.703 16.147,67.916 7.702,81.522 3.01,95.129 1.133,107.797 c -2.815,19.706 0,37.067 4.223,46.92 4.692,12.668 8.915,17.829 12.199,16.891 z" /><path
         inkscape:connector-curvature="0"
         id="path4623"
         style="fill:#00729c;fill-rule:nonzero"
         d="m 95.441,218.058 c 40.82,49.265 106.976,60.526 144.512,46.919 0.469,0 1.407,-0.469 1.876,-0.469 32.375,-12.668 49.735,-40.82 54.427,-55.365 1.877,-6.099 2.815,-10.322 3.284,-13.137 0,-3.754 -1.407,-4.692 -4.222,-3.754 -0.939,0.469 -2.346,0.469 -3.285,1.408 -4.223,1.876 -11.73,6.568 -22.052,9.384 -5.63,1.407 -12.199,2.345 -19.237,1.876 -19.706,-0.938 -47.388,-11.73 -68.502,-36.597 -12.199,-14.076 -18.299,-33.782 -18.299,-53.019 -0.469,-7.976 0.47,-15.952 2.816,-23.459 0,-0.47 0.469,-1.408 0.469,-1.877 -1.877,-11.73 -24.398,-21.583 -45.981,-19.237 -9.384,0.938 -19.237,4.223 -27.213,10.322 -15.484,11.73 -24.399,31.436 -26.275,54.427 -1.877,26.744 7.507,58.18 27.682,82.578 z" /></g></g></svg>