<?xml version="1.0" encoding="UTF-8" standalone="no"?>
<svg
   xmlns:sketch="http://www.bohemiancoding.com/sketch/ns"
   xmlns:dc="http://purl.org/dc/elements/1.1/"
   xmlns:cc="http://creativecommons.org/ns#"
   xmlns:rdf="http://www.w3.org/1999/02/22-rdf-syntax-ns#"
   xmlns:svg="http://www.w3.org/2000/svg"
   xmlns="http://www.w3.org/2000/svg"
   xmlns:sodipodi="http://sodipodi.sourceforge.net/DTD/sodipodi-0.dtd"
   xmlns:inkscape="http://www.inkscape.org/namespaces/inkscape"
   width="399"
   height="399"
   viewBox="0 0 399 399"
   version="1.1"
   id="svg4561"
   sodipodi:docname="sidekiq.svg"
   inkscape:version="0.92.1 r15371">
  <metadata
     id="metadata4565">
    <rdf:RDF>
      <cc:Work
         rdf:about="">
        <dc:format>image/svg+xml</dc:format>
        <dc:type
           rdf:resource="http://purl.org/dc/dcmitype/StillImage" />
        <dc:title>red-kicker</dc:title>
      </cc:Work>
    </rdf:RDF>
  </metadata>
  <sodipodi:namedview
     pagecolor="#ffffff"
     bordercolor="#666666"
     borderopacity="1"
     objecttolerance="10"
     gridtolerance="10"
     guidetolerance="10"
     inkscape:pageopacity="0"
     inkscape:pageshadow="2"
     inkscape:window-width="1598"
     inkscape:window-height="881"
     id="namedview4563"
     showgrid="false"
     inkscape:zoom="1.8070175"
     inkscape:cx="183.5"
     inkscape:cy="199.5"
     inkscape:window-x="0"
     inkscape:window-y="0"
     inkscape:window-maximized="0"
     inkscape:current-layer="svg4561" />
  <!-- Generator: Sketch 3.3.2 (12043) - http://www.bohemiancoding.com/sketch -->
  <title
     id="title4548">red-kicker</title>
  <desc
     id="desc4550">Created with Sketch.</desc>
  <defs
     id="defs4552" />
  <g
     id="g4559"
     sketch:type="MSPage"
     style="fill:none;fill-rule:evenodd;stroke:none;stroke-width:1"
     transform="translate(15.5,5.9030049e-6)">
    <g
       id="kicker"
       sketch:type="MSLayerGroup">
      <g
         id="Page-1"
         sketch:type="MSShapeGroup">
        <path
           d="m 103.63373,185.6672 c -0.74479,0.0325 -1.11402,-0.31832 -1.29461,-0.62482 0,0 -4.591196,-0.95174 -5.939658,-0.54443 -1.348462,0.40732 -9.049948,-0.94368 -12.42913,-3.38757 -3.379182,-2.43583 -6.754351,-0.67349 -9.86063,-2.57295 -3.102266,-1.89946 -7.833923,-1.62926 -11.34153,-1.76235 -3.511621,-0.13308 -7.970375,0.13309 -9.591741,2.30275 -1.621365,2.16563 -7.966361,8.81173 -10.261958,11.51776 -2.295596,2.71006 -11.614434,12.46548 -15.262505,13.95359 0,0 0.94312,1.49618 0.405341,2.57698 -0.541793,1.08886 -0.136452,4.19817 -0.136452,5.28704 0,1.08886 0.26889,2.84314 -0.670217,3.93201 -0.951148,1.08483 -1.488927,2.84314 -1.488927,3.52066 0,0.67751 -1.083586,3.11737 0,6.37187 1.079572,3.25449 2.022693,6.90824 -2.432048,5.42012 -4.458755,-1.48811 -3.511621,-5.55321 -7.15568,-5.69435 -3.644058,-0.13309 -8.3717025,0 -9.724178,-5.00878 -1.3564888,-5.01684 -3.9169618,-13.55434 -4.4587546,-14.90937 -0.5377796,-1.351 -2.4280347,-7.58575 1.0835857,-13.00587 3.5116204,-5.42013 4.1858515,-9.35214 4.7276444,-10.57408 0.5377796,-1.21792 3.1062785,-8.94482 4.9925205,-10.03368 1.890256,-1.08483 1.212011,-4.47241 2.295597,-5.96052 1.079572,-1.49215 0.674231,-3.93201 1.348462,-5.28704 0.674231,-1.35504 0.947134,-5.28301 1.890255,-8.26327 0.947134,-2.98026 4.053413,-7.59382 5.943668,-10.02965 1.890256,-2.43583 2.973841,-6.0936 2.973841,-7.31555 0,-1.22195 -0.674231,-3.79086 2.428035,-5.96052 3.102266,-2.16966 8.640593,-9.21502 9.182386,-10.29985 0,-0.2702 0,-5.28301 -0.272903,-7.04535 -0.26889,-1.76235 -0.674232,-3.38758 1.079572,-4.06509 1.76183,-0.68155 4.189865,-2.1737 4.189865,-2.1737 0,0 -1.685578,-2.16563 -5.33365,-3.99653 C 34.871859,100.20778 23.931657,87.806833 22.92031,80.491281 21.90495,73.171695 21.499609,61.585376 31.428464,57.520284 41.35732,53.451159 52.29351,51.216971 53.918888,51.01533 c 1.621365,-0.201642 7.292131,-1.423589 9.523515,0.201641 0,0 -2.432048,-0.403283 -3.443395,0 -1.01536,0.407316 4.856069,0.205675 6.276771,1.830905 0,0 -2.833376,-0.810599 -4.454742,-0.608957 -1.617352,0.201641 2.83739,2.032546 3.648072,3.456135 0.80667,1.423588 3.848736,2.439861 3.443395,4.678082 -0.401328,2.234187 -0.606005,5.690322 -0.204677,6.706595 0.409354,1.016273 1.420701,2.847178 1.625378,5.690323 0.204677,2.847177 1.01536,6.710628 1.82203,8.5375 0.810682,1.830904 2.837389,7.521227 2.026706,11.586319 0,0 0.810683,2.032546 4.860083,-2.641503 4.053413,-4.678083 8.106826,-5.488681 10.12952,-5.488681 2.026706,0 5.068773,-2.036579 7.091466,-1.221948 2.03072,0.814632 4.2621,-0.201641 6.69014,0.407316 2.42803,0.608957 12.55755,0 14.78894,-0.814632 2.22336,-0.814631 9.92484,-1.830904 11.54219,-1.830904 1.62137,0 -2.02269,-2.641503 1.01536,-4.67405 3.04207,-2.032546 -3.24273,-3.048819 1.4207,-8.940783 4.65541,-5.895996 0.19665,-7.521227 -0.61002,-8.739141 -0.80667,-1.221947 -1.01134,-5.085398 -1.01134,-7.319585 0,-2.238221 -0.60601,-7.928543 -0.60601,-7.928543 l 0.81068,-1.016273 c 0,0 -0.65416,-1.080799 -1.29629,-1.463918 -0.63811,-0.383118 -1.27622,-2.689897 -1.78189,-4.226405 -0.51771,-1.536508 -6.13229,-9.864301 -7.78978,-11.142708 -1.6615,-1.286472 -1.91433,-3.202066 -1.6615,-4.996675 0.25685,-1.798642 1.52906,-3.331118 1.27623,-5.254777 -0.25685,-1.919627 -0.12843,-4.480474 -0.25685,-5.375762 -0.12441,-0.899321 0.25685,-6.2750827 1.40866,-6.787252 0,0 0.89095,-0.3871517 1.27622,0.8912553 0,0 -0.64212,-4.48047358 0.76253,-4.48047358 0,0 1.66149,-0.51216935 2.2996,1.79460908 0.6341,2.3067785 1.27623,3.5851855 1.40465,4.2264054 0.12843,0.6412198 0.63811,1.6615257 0.63811,1.6615257 0,0 1.40064,-0.6331542 2.55245,-0.1250177 1.1478,0.5121693 1.91835,1.0243387 1.91835,1.6655586 0,0.6412199 0,-0.5121694 1.40465,-0.5121694 1.40063,0 2.68087,-0.3871516 3.06614,1.0243387 0.37725,1.4074579 0.63811,2.4358289 0.76253,3.8432869 0.13243,1.407457 0.38527,2.560846 0.89496,3.585185 0.5137,1.024339 1.27221,2.814915 1.27221,5.250744 0,2.435829 0.89897,6.916303 1.28023,8.969013 0.38127,2.048677 4.72363,9.989318 4.72363,9.989318 0,0 6.63797,1.28244 9.7001,0.64122 3.06615,-0.64122 8.42388,0.51217 7.78978,3.331118 -0.63811,2.814915 -1.01937,11.142707 -1.27622,17.675891 -0.25685,6.533184 -1.28024,19.2124 -2.29961,23.696906 -1.02339,4.480474 -7.27608,16.139387 -9.82853,18.059007 -2.54843,1.92366 -5.36174,3.20207 -12.38097,6.53319 -7.02324,3.33111 -15.19427,7.04535 -15.19427,7.04535 0,0 4.34236,6.14603 5.36174,6.53319 1.01937,0.38311 0.89496,-0.89529 2.16717,-0.38716 0.6341,0.25407 2.83739,1.12113 1.43675,0.54444 -0.003,0.0535 7.69042,2.02991 7.69042,2.02991 0.73727,-0.0146 1.19353,-0.14854 1.10168,-0.58543 -0.38544,-1.78926 1.40525,-4.09434 2.1681,-4.61016 0.76687,-0.5118 -1.14829,2.30508 0,3.58255 1.15231,1.28552 17.65399,-3.61882 17.34484,-2.74031 -0.30514,0.87851 0.89535,0.94702 1.94728,0.12089 1.0439,-0.82209 5.41624,-3.67926 8.53189,-3.66717 3.12368,0.0161 10.19009,0.64074 12.08518,-0.0524 1.89508,-0.68911 10.51129,-6.02465 13.39005,-7.4351 2.87073,-1.41851 12.79181,-1.2815 16.97947,-4.11046 4.18765,-2.833 13.41013,-9.462127 17.30468,-11.876016 3.89055,-2.40986 32.76247,-20.125146 38.92149,-21.088283 6.15903,-0.963138 20.92221,-6.806442 23.45167,-8.615851 2.52945,-1.80538 10.4872,-6.201962 12.08116,-7.580176 1.59797,-1.378214 9.57981,2.123739 13.73936,8.05973 0,0 8.11433,-3.985537 9.86487,-4.138672 1.74653,-0.153135 4.98263,-2.413889 7.4639,-4.320015 2.48529,-1.910156 9.96927,-6.967636 13.2415,-8.567493 0,0 1.65418,-0.729405 1.97137,-1.894036 0.31718,-1.164631 1.63812,-3.389116 2.82656,-2.929712 0,0 2.60574,-3.336728 3.66169,-2.333292 0,0 2.28856,-2.172097 3.60146,-0.991346 0,0 1.29685,0.185373 1.73449,0.88657 0,0 1.64615,-1.333885 2.409,-0.322389 0,0 1.18844,-1.345975 3.19193,0.233732 0,0 1.33299,1.648215 -1.12018,4.678673 0,0 -1.53775,0.797913 -2.61377,3.022399 -1.068,2.224485 -4.05918,6.451813 -7.33542,8.108088 -3.28428,1.656274 -7.07445,4.565837 -6.93392,10.513917 0.14454,5.952111 -2.3809,12.871389 -8.60818,11.315861 -6.22728,-1.555528 -11.68769,0.544032 -17.14007,3.522102 0,0 -0.47779,3.143294 -1.00375,3.892849 -0.52998,0.745525 -2.9671,0.503733 -6.31963,2.611353 -3.34851,2.103589 -5.39215,2.893443 -8.03403,4.876136 -2.64589,1.982694 -3.212,3.320609 -5.43632,4.356284 -2.22431,1.043737 -4.72165,3.872697 -6.19516,5.440317 -1.48154,1.56359 -6.9299,5.41211 -13.36997,8.5554 -6.44409,3.14733 -32.9311,12.6296 -39.05399,17.61454 -6.13092,4.98495 -17.40105,13.91513 -34.50498,22.31336 -0.71066,0.34657 -1.36912,0.68508 -2.03963,1.01956 -1.03587,0.94702 -15.74284,14.44707 -20.77766,17.97723 -5.21951,3.65912 -7.30732,4.183 -8.87317,12.55303 -1.02784,5.51688 -5.22353,14.42288 -8.12236,21.51545 -0.63839,6.90315 -1.00376,13.60885 -1.16034,17.69513 -0.20075,5.28316 -6.94195,57.8205 -8.56401,63.50261 -1.62608,5.69017 -2.02758,9.9578 -1.21655,14.42692 0.81103,4.46106 -1.21655,9.74421 -3.64563,14.21333 -2.43711,4.46912 -6.48825,15.0314 -5.88198,21.12455 0.60626,6.09316 1.21654,8.32974 -0.60627,9.13974 -1.82683,0.81 -7.7048,0.61254 -8.51182,2.64359 -0.81103,2.03105 -3.85039,2.03105 -3.85039,2.03105 0,0 -0.91141,9.06317 0.67853,10.65899 1.59396,1.58777 7.21497,8.26526 0.37742,13.23811 -6.84559,4.98091 -14.06056,9.39765 -15.74285,12.87542 -1.69032,3.46971 -5.44034,5.44838 -6.84559,6.57271 -1.40525,1.12433 -3.93471,2.72419 -4.12341,3.37703 -0.1847,0.66089 -2.24439,1.88194 -4.21576,1.32179 0,0 -1.68631,0.74553 -3.46897,-1.22911 0,0 -2.898836,0.28209 -3.464952,-1.59179 0,0 -2.43711,0.18134 -2.718161,-1.69255 0,0 -1.220562,-2.72419 2.43711,-3.84852 3.649643,-1.13239 9.463373,-9.30496 9.652083,-10.61869 0.18469,-1.31374 2.90686,-9.49033 4.96656,-12.86736 2.0597,-3.38509 4.77786,-12.21452 5.15527,-20.29037 0,0 -0.83913,-0.56015 -0.83913,-1.40239 0,-0.85031 0.0482,-4.73107 0.45369,-6.21809 0.40953,-1.49508 1.21655,-5.82315 0.67854,-12.19034 -0.54203,-6.35912 0.81103,-16.78841 0,-23.9656 -0.81103,-7.17719 0.73073,-57.00244 2.8908,-63.50261 2.16409,-6.50018 2.97111,-7.9872 2.83862,-10.56228 -0.13651,-2.57508 0,-10.42929 0.81103,-10.83228 0.80701,-0.40701 0.94352,-10.29227 0.67452,-11.38033 -0.27302,-1.08001 -6.08274,-5.14211 -6.88976,-7.9872 0,0 0.1325,2.97807 0,4.06211 -0.13651,1.08403 -0.269,-0.27 -2.43309,-2.57509 -2.1681,-2.30508 -6.21925,-7.17719 -6.48825,-10.69929 -0.48351,-0.26176 -6.46981,-3.798 -6.46981,-3.798 z"
           id="Shape"
           inkscape:connector-curvature="0"
           style="fill:#991b21" />
        <path
           d="m 129.95299,125 c -0.61262,10.99897 -26.33451,61.09639 -26.33451,61.09639 -0.89903,4.43273 -0.71206,8.57047 -0.25857,11.0313 C 104.44989,203.02721 99,211.87649 99,211.87649 L 104.93521,215 c 8.01571,-4.64688 4.5787,-18.58349 4.5787,-18.58349 -0.66433,-2.49315 -0.724,-4.89337 -0.38587,-7.14811 l 0.0636,0.0646 c 0,0 29.17084,-57.81933 27.75864,-62.37328 -0.004,0.008 -3.48077,-0.49297 -6.99734,-1.95977 v 0 z"
           id="path4555"
           inkscape:connector-curvature="0"
           style="fill:#000000" />
      </g>
    </g>
  </g>
</svg>
