<?xml version="1.0" encoding="UTF-8" standalone="no"?>
<svg
   xmlns:svg="http://www.w3.org/2000/svg"
   xmlns="http://www.w3.org/2000/svg"
   width="371.97009mm"
   height="371.97009mm"
   viewBox="0 0 371.97009 371.9701"
   version="1.1">
  <g transform="translate(93.537457,48.182113)">
    <g transform="translate(2.1112778,6.4321218)">
      <g transform="translate(-2.8976987,-12.192952)">
        <path
           d="M -472.44095,-94.48819 H 0 V 0 h -472.44095 z"
           transform="matrix(0.13229167,0.22913589,0.22913589,-0.13229167,176.66147,87.200131)" />
        <path
           transform="matrix(0.13229166,-0.22913589,-0.22913589,-0.13229166,106.43935,15.313604)"
           d="m -412.44095,-94.488191 251.19739,0.717973 V 0.71797193 L -412.44095,-1.4577831e-6 Z" />
        <path
           d="M -312.44095,-94.488193 0,-94.48819 V 0 l -312.44095,-3.8874217e-6 z"
           transform="matrix(0.13229166,-0.22913589,-0.22913589,-0.13229166,51.965722,16.212515)" />
        <path
           transform="matrix(0.13229167,0.22913589,0.22913589,-0.13229167,135.94619,111.9292)"
           d="M -472.44095,-94.48819 H 0 V 0 h -472.44095 z" />
        <path
           transform="matrix(-0.26458333,0,0,0.26458333,117.1776,273.15704)"
           d="M -472.44095,-94.48819 H 0 V 0 h -472.44095 z" />
        <path
           d="m -412.44095,-94.488191 251.19739,0.717973 V 0.71797193 L -412.44095,-1.4577831e-6 Z"
           transform="matrix(0.13229167,0.22913588,0.22913588,-0.13229167,214.54422,248.28616)" />
        <path
           transform="matrix(0.13229167,0.22913588,0.22913588,-0.13229167,241.00255,200.66116)"
           d="M -312.44095,-94.488193 0,-94.48819 V 0 l -312.44095,-3.8874217e-6 z" />
        <path
           d="M -472.44095,-94.48819 H 0 V 0 h -472.44095 z"
           transform="matrix(-0.26458333,0,0,0.26458333,116.11924,225.53204)" />
        <path
           transform="matrix(0.13229166,-0.22913589,-0.22913589,-0.13229166,-14.227851,128.71374)"
           d="M -472.44095,-94.48819 H 0 V 0 h -472.44095 z" />
        <path
           d="m -412.44095,-94.488191 251.19739,0.717973 V 0.71797193 L -412.44095,-1.4577831e-6 Z"
           transform="matrix(-0.26458333,0,0,0.26458333,-41.372347,225.47115)" />
        <path
           transform="matrix(-0.26458333,0,0,0.26458333,-13.357046,272.19724)"
           d="M -312.44095,-94.488193 0,-94.48819 V 0 l -312.44095,-3.8874217e-6 z" />
        <path
           d="M -472.44095,-94.48819 H 0 V 0 h -472.44095 z"
           transform="matrix(0.13229166,-0.22913589,-0.22913589,-0.13229166,27.492316,151.44406)" />
      </g>
    </g>
  </g>
</svg>
