<?xml version="1.0" encoding="utf-8"?>
<!DOCTYPE svg PUBLIC "-//W3C//DTD SVG 1.1//EN" "http://www.w3.org/Graphics/SVG/1.1/DTD/svg11.dtd">
<svg version="1.1" id="tibet-logo" xmlns="http://www.w3.org/2000/svg" xmlns:xlink="http://www.w3.org/1999/xlink" x="0px" y="0px"
	viewBox="0 0 500 500" style="enable-background:new 0 0 500 500;" xml:space="preserve">
	<path d="M337.5433,12.4125c-12.5004,15.2179-28.8053,22.4645-70.3828,31.2511c-38.9506,8.243-52.9004,12.1381-68.2089,19.2941
		c-26.5408,12.4099-45.1102,31.5228-55.8896,57.3389c-3.6233,8.7865-5.0726,11.2323-6.3408,11.2323
		c-0.3623,0-3.9856-4.6197-7.8807-10.2359c-10.6888-15.0368-17.5731-23.3704-29.2582-35.3273
		c-17.1202-17.6637-29.53-26.6314-43.8421-31.6134c-9.33-3.1704-21.0152-3.6233-25.5444-0.8152
		c-2.6269,1.6305-11.5946,14.0403-14.0403,19.4753c-1.7211,3.7139,0,4.7103,9.8735,5.8879
		c35.0556,4.2574,66.216,20.5623,97.7389,50.9981c8.9677,8.7865,11.4134,10.6888,13.678,10.6888s4.9821-2.2646,17.0296-14.3121
		c27.4466-27.2654,49.0959-38.4977,98.1918-50.9075c33.6968-8.5148,47.6466-14.0403,61.4152-24.4574
		c11.7758-8.8771,23.9139-23.461,30.1641-36.3237C348.2321,6.1623,343.7935,4.8036,337.5433,12.4125z"/>
	<path d="M458.6526,157.345c-2.174,3.261-1.5399,24.3668,0.8152,27.8995l1.5399,2.4457h13.5874c13.3157,0,13.4968,0,15.3085-2.2646
		c2.2646-2.9892,4.6198-13.2251,4.6198-20.2c0-4.0762-0.4529-5.9785-1.9023-7.7901l-1.8116-2.3551H475.501
		C460.1925,155.0805,460.1019,155.0805,458.6526,157.345z"/>
	<path d="M31.9169,158.0697c-0.9058,1.1776-3.0798,6.522-4.8009,11.8663c-3.6233,11.3229-3.3516,12.5004,2.9892,13.2251
		c6.7937,0.8152,6.8843,1.087,2.6269,14.6744c-7.156,22.6457-10.8699,41.3058-13.678,67.756l-1.5399,15.4897l-3.8951,3.8045
		c-2.0834,1.9928-4.6197,5.2538-5.6161,7.0655c-1.9928,3.8951-2.3552,11.8663-0.5435,13.2251
		c0.5435,0.5435,8.4242,1.1776,17.3919,1.4493c62.9551,2.174,114.1344,18.6601,153.085,49.2771
		c3.5327,2.808,13.3157,12.1381,21.8305,20.7435c15.0367,15.3085,15.5802,15.7614,19.2036,15.7614c4.5291,0,6.522-2.3552,6.522-7.609
		c0-1.9022-3.8951-47.556-8.6054-101.3622l-8.6054-97.8295l2.2646-4.8915c4.5291-9.5112,5.0726-19.2036,1.2682-23.008
		c-1.7211-1.7211-3.8045-1.7211-89.9488-1.7211H33.5474L31.9169,158.0697z M178.2987,185.4257
		c1.4493,1.4493,4.348,14.765,14.4932,65.6725c13.7686,69.4771,22.4646,114.5873,23.3704,122.0151
		c0.4529,3.9857,0.2717,4.8009-0.9058,4.8009c-0.8152,0-5.435-4.9821-10.2359-11.1417
		c-11.0511-13.8592-33.6062-36.4143-44.1138-44.295c-32.8816-24.4574-72.2851-37.5013-118.7541-39.4035
		c-16.0332-0.6341-18.1166-1.3587-17.3013-6.3408c4.348-27.4466,14.4933-57.7013,27.4466-82.2492
		c3.3516-6.3408,4.9821-8.5148,7.4278-9.7829c2.8987-1.4493,7.2466-1.5399,59.9658-1.3587
		C175.1283,183.6141,176.5777,183.6141,178.2987,185.4257z"/>
	<path d="M258.6457,157.345c-1.5399,1.6305-4.348,8.8771-6.522,17.0296c-1.9022,6.9749-1.087,8.7865,3.7139,8.7865
		c4.0762,0,5.8879,0.8152,5.8879,2.6269c0,0.8152-1.6305,5.1632-3.6233,9.6924c-7.4278,16.939-12.1381,42.2116-13.3157,71.0169
		l-0.5435,14.0403l-3.8045,3.6233c-2.174,1.9928-4.7103,5.3444-5.7973,7.4278c-2.0834,4.2574-2.5363,11.9569-0.8152,13.678
		c0.7247,0.7246,4.348,1.087,10.2359,1.087c30.4359,0,70.3829,6.522,95.112,15.5803c13.9498,5.0726,34.7838,15.9426,44.2044,22.9174
		c19.3847,14.4933,32.9721,30.7982,43.6609,52.5381c7.7901,15.9426,12.1381,28.443,15.3085,44.5667
		c3.1704,16.3049,4.1668,23.6421,4.8915,37.6825c0.7246,12.5004,1.5399,15.1273,4.7103,15.1273
		c3.6233,0,3.8951-1.8116,3.3516-22.4645c-1.6305-58.4259-17.7542-103.8985-48.4618-136.2366
		c-31.5228-33.0627-76.0896-50.6358-134.2437-52.991c-7.6996-0.2717-14.9462-0.9058-16.0332-1.2682
		c-2.7175-0.9964-3.3515-5.3444-2.174-15.0367c2.8081-21.8305,7.8807-39.4941,15.9426-55.9802
		c7.6089-15.4897,15.3991-24.6385,23.008-26.7219c2.0834-0.5435,28.6242-0.9058,72.1945-0.9058
		c65.0385,0,69.0241-0.0906,70.3828-1.6305c2.8081-3.0798,4.2574-8.1525,4.2574-15.1273c0-11.5946,10.6888-10.417-91.851-10.417
		C271.0555,155.9863,259.9138,156.1675,258.6457,157.345z"/>
</svg>
